<svg xmlns="http://www.w3.org/2000/svg" width="5542" height="528" viewBox="0 0 5542 528" font-family="ui-monospace,Menlo,Consolas,monospace">
<rect width="5542" height="528" fill="#fbfbfd"/>
<path d="M180.0,227.9 C191.0,227.9 191.0,227.9 202.0,227.9" fill="none" stroke="#1a7f37" stroke-width="2.0"/>
<path d="M352.0,227.9 C363.0,227.9 363.0,227.9 374.0,227.9" fill="none" stroke="#1a7f37" stroke-width="2.0"/>
<path d="M524.0,227.9 C535.0,227.9 535.0,227.9 546.0,227.9" fill="none" stroke="#1a7f37" stroke-width="2.0"/>
<path d="M696.0,227.9 C707.0,227.9 707.0,227.9 718.0,227.9" fill="none" stroke="#1a7f37" stroke-width="2.0"/>
<path d="M868.0,227.9 C879.0,227.9 879.0,227.9 890.0,227.9" fill="none" stroke="#1a7f37" stroke-width="2.0"/>
<path d="M1040.0,227.9 C1051.0,227.9 1051.0,227.9 1062.0,227.9" fill="none" stroke="#1a7f37" stroke-width="2.0"/>
<path d="M1212.0,227.9 C1223.0,227.9 1223.0,227.9 1234.0,227.9" fill="none" stroke="#1a7f37" stroke-width="2.0"/>
<path d="M1384.0,227.9 C1395.0,227.9 1395.0,227.9 1406.0,227.9" fill="none" stroke="#1a7f37" stroke-width="2.0"/>
<path d="M1556.0,227.9 C1567.0,227.9 1567.0,227.9 1578.0,227.9" fill="none" stroke="#1a7f37" stroke-width="2.0"/>
<path d="M1728.0,227.9 C1739.0,227.9 1739.0,227.9 1750.0,227.9" fill="none" stroke="#1a7f37" stroke-width="2.0"/>
<path d="M1900.0,227.9 C1911.0,227.9 1911.0,227.9 1922.0,227.9" fill="none" stroke="#1a7f37" stroke-width="2.0"/>
<path d="M2072.0,227.9 C2083.0,227.9 2083.0,227.9 2094.0,227.9" fill="none" stroke="#1a7f37" stroke-width="2.0"/>
<path d="M2244.0,227.9 C2255.0,227.9 2255.0,227.9 2266.0,227.9" fill="none" stroke="#1a7f37" stroke-width="2.0"/>
<path d="M2416.0,227.9 C2427.0,227.9 2427.0,227.9 2438.0,227.9" fill="none" stroke="#1a7f37" stroke-width="2.0"/>
<path d="M2588.0,227.9 C2599.0,227.9 2599.0,227.9 2610.0,227.9" fill="none" stroke="#1a7f37" stroke-width="2.0"/>
<path d="M2760.0,227.9 C2771.0,227.9 2771.0,227.9 2782.0,227.9" fill="none" stroke="#1a7f37" stroke-width="2.0"/>
<path d="M2932.0,227.9 C2943.0,227.9 2943.0,227.9 2954.0,227.9" fill="none" stroke="#1a7f37" stroke-width="2.0"/>
<path d="M3104.0,227.9 C3115.0,227.9 3115.0,227.9 3126.0,227.9" fill="none" stroke="#1a7f37" stroke-width="2.0"/>
<path d="M3276.0,227.9 C3287.0,227.9 3287.0,227.9 3298.0,227.9" fill="none" stroke="#1a7f37" stroke-width="2.0"/>
<path d="M3448.0,227.9 C3459.0,227.9 3459.0,227.9 3470.0,227.9" fill="none" stroke="#1a7f37" stroke-width="2.0"/>
<path d="M3620.0,227.9 C3631.0,227.9 3631.0,227.9 3642.0,227.9" fill="none" stroke="#1a7f37" stroke-width="2.0"/>
<path d="M3792.0,227.9 C3803.0,227.9 3803.0,227.9 3814.0,227.9" fill="none" stroke="#1a7f37" stroke-width="2.0"/>
<path d="M3964.0,227.9 C3975.0,227.9 3975.0,227.9 3986.0,227.9" fill="none" stroke="#1a7f37" stroke-width="2.0"/>
<path d="M4136.0,227.9 C4147.0,227.9 4147.0,106.8 4158.0,106.8" fill="none" stroke="#b9c0cc" stroke-width="1.0"/>
<path d="M4308.0,106.8 C4319.0,106.8 4319.0,68.5 4330.0,68.5" fill="none" stroke="#b9c0cc" stroke-width="1.0"/>
<path d="M4480.0,68.5 C4491.0,68.5 4491.0,43.0 4502.0,43.0" fill="none" stroke="#b9c0cc" stroke-width="1.0"/>
<path d="M4480.0,68.5 C4491.0,68.5 4491.0,94.0 4502.0,94.0" fill="none" stroke="#b9c0cc" stroke-width="1.0"/>
<path d="M4652.0,94.0 C4663.0,94.0 4663.0,77.0 4674.0,77.0" fill="none" stroke="#b9c0cc" stroke-width="1.0"/>
<path d="M4652.0,94.0 C4663.0,94.0 4663.0,111.0 4674.0,111.0" fill="none" stroke="#b9c0cc" stroke-width="1.0"/>
<path d="M4308.0,106.8 C4319.0,106.8 4319.0,145.0 4330.0,145.0" fill="none" stroke="#b9c0cc" stroke-width="1.0"/>
<path d="M4136.0,227.9 C4147.0,227.9 4147.0,349.0 4158.0,349.0" fill="none" stroke="#1a7f37" stroke-width="2.0"/>
<path d="M4308.0,349.0 C4319.0,349.0 4319.0,272.5 4330.0,272.5" fill="none" stroke="#1a7f37" stroke-width="2.0"/>
<path d="M4480.0,272.5 C4491.0,272.5 4491.0,221.5 4502.0,221.5" fill="none" stroke="#1a7f37" stroke-width="2.0"/>
<path d="M4652.0,221.5 C4663.0,221.5 4663.0,196.0 4674.0,196.0" fill="none" stroke="#1a7f37" stroke-width="2.0"/>
<path d="M4824.0,196.0 C4835.0,196.0 4835.0,179.0 4846.0,179.0" fill="none" stroke="#1a7f37" stroke-width="2.0"/>
<path d="M4824.0,196.0 C4835.0,196.0 4835.0,213.0 4846.0,213.0" fill="none" stroke="#b9c0cc" stroke-width="1.0"/>
<path d="M4652.0,221.5 C4663.0,221.5 4663.0,247.0 4674.0,247.0" fill="none" stroke="#b9c0cc" stroke-width="1.0"/>
<path d="M4480.0,272.5 C4491.0,272.5 4491.0,323.5 4502.0,323.5" fill="none" stroke="#1a7f37" stroke-width="2.0"/>
<path d="M4652.0,323.5 C4663.0,323.5 4663.0,298.0 4674.0,298.0" fill="none" stroke="#1a7f37" stroke-width="2.0"/>
<path d="M4824.0,298.0 C4835.0,298.0 4835.0,281.0 4846.0,281.0" fill="none" stroke="#b9c0cc" stroke-width="1.0"/>
<path d="M4824.0,298.0 C4835.0,298.0 4835.0,315.0 4846.0,315.0" fill="none" stroke="#1a7f37" stroke-width="2.0"/>
<path d="M4652.0,323.5 C4663.0,323.5 4663.0,349.0 4674.0,349.0" fill="none" stroke="#b9c0cc" stroke-width="1.0"/>
<path d="M4308.0,349.0 C4319.0,349.0 4319.0,425.5 4330.0,425.5" fill="none" stroke="#1a7f37" stroke-width="2.0"/>
<path d="M4480.0,425.5 C4491.0,425.5 4491.0,425.5 4502.0,425.5" fill="none" stroke="#1a7f37" stroke-width="2.0"/>
<path d="M4652.0,425.5 C4663.0,425.5 4663.0,425.5 4674.0,425.5" fill="none" stroke="#1a7f37" stroke-width="2.0"/>
<path d="M4824.0,425.5 C4835.0,425.5 4835.0,425.5 4846.0,425.5" fill="none" stroke="#1a7f37" stroke-width="2.0"/>
<path d="M4996.0,425.5 C5007.0,425.5 5007.0,425.5 5018.0,425.5" fill="none" stroke="#1a7f37" stroke-width="2.0"/>
<path d="M5168.0,425.5 C5179.0,425.5 5179.0,400.0 5190.0,400.0" fill="none" stroke="#b9c0cc" stroke-width="1.0"/>
<path d="M5340.0,400.0 C5351.0,400.0 5351.0,383.0 5362.0,383.0" fill="none" stroke="#b9c0cc" stroke-width="1.0"/>
<path d="M5340.0,400.0 C5351.0,400.0 5351.0,417.0 5362.0,417.0" fill="none" stroke="#b9c0cc" stroke-width="1.0"/>
<path d="M5168.0,425.5 C5179.0,425.5 5179.0,451.0 5190.0,451.0" fill="none" stroke="#1a7f37" stroke-width="2.0"/>
<path d="M5340.0,451.0 C5351.0,451.0 5351.0,451.0 5362.0,451.0" fill="none" stroke="#1a7f37" stroke-width="2.0"/>
<rect x="30.0" y="214.9" width="150" height="26" rx="5" fill="#e4ecf9" stroke="#24406e" stroke-width="2.0"/>
<text x="38.0" y="231.9" font-size="11.5" fill="#111">c3-d5=0  liv:71</text>
<rect x="202.0" y="214.9" width="150" height="26" rx="5" fill="#e4ecf9" stroke="#24406e" stroke-width="2.0"/>
<text x="210.0" y="231.9" font-size="11.5" fill="#111">c2-b4=0  liv:70</text>
<rect x="374.0" y="214.9" width="150" height="26" rx="5" fill="#e4ecf9" stroke="#24406e" stroke-width="2.0"/>
<text x="382.0" y="231.9" font-size="11.5" fill="#111">d2-e4=0  liv:69</text>
<rect x="546.0" y="214.9" width="150" height="26" rx="5" fill="#e4ecf9" stroke="#24406e" stroke-width="2.0"/>
<text x="554.0" y="231.9" font-size="11.5" fill="#111">b3-c5=0  liv:68</text>
<rect x="718.0" y="214.9" width="150" height="26" rx="5" fill="#e4ecf9" stroke="#24406e" stroke-width="2.0"/>
<text x="726.0" y="231.9" font-size="11.5" fill="#111">c2-e3=0  liv:67</text>
<rect x="890.0" y="214.9" width="150" height="26" rx="5" fill="#e4ecf9" stroke="#24406e" stroke-width="2.0"/>
<text x="898.0" y="231.9" font-size="11.5" fill="#111">c3-e4=0  liv:66</text>
<rect x="1062.0" y="214.9" width="150" height="26" rx="5" fill="#e4ecf9" stroke="#24406e" stroke-width="2.0"/>
<text x="1070.0" y="231.9" font-size="11.5" fill="#111">d3-c5=0  liv:65</text>
<rect x="1234.0" y="214.9" width="150" height="26" rx="5" fill="#e4ecf9" stroke="#24406e" stroke-width="2.0"/>
<text x="1242.0" y="231.9" font-size="11.5" fill="#111">e3-d5=0  liv:64</text>
<rect x="1406.0" y="214.9" width="150" height="26" rx="5" fill="#e4ecf9" stroke="#24406e" stroke-width="2.0"/>
<text x="1414.0" y="231.9" font-size="11.5" fill="#111">d2-b3=0  liv:63</text>
<rect x="1578.0" y="214.9" width="150" height="26" rx="5" fill="#e4ecf9" stroke="#24406e" stroke-width="2.0"/>
<text x="1586.0" y="231.9" font-size="11.5" fill="#111">d3-b4=0  liv:62</text>
<rect x="1750.0" y="214.9" width="150" height="26" rx="5" fill="#e4ecf9" stroke="#24406e" stroke-width="2.0"/>
<text x="1758.0" y="231.9" font-size="11.5" fill="#111">c2-d4=0  liv:61</text>
<rect x="1922.0" y="214.9" width="150" height="26" rx="5" fill="#e4ecf9" stroke="#24406e" stroke-width="2.0"/>
<text x="1930.0" y="231.9" font-size="11.5" fill="#111">e3-c4=0  liv:60</text>
<rect x="2094.0" y="214.9" width="150" height="26" rx="5" fill="#e4ecf9" stroke="#24406e" stroke-width="2.0"/>
<text x="2102.0" y="231.9" font-size="11.5" fill="#111">b3-d4=0  liv:59</text>
<rect x="2266.0" y="214.9" width="150" height="26" rx="5" fill="#e4ecf9" stroke="#24406e" stroke-width="2.0"/>
<text x="2274.0" y="231.9" font-size="11.5" fill="#111">b4-d5=0  liv:58</text>
<rect x="2438.0" y="214.9" width="150" height="26" rx="5" fill="#e4ecf9" stroke="#24406e" stroke-width="2.0"/>
<text x="2446.0" y="231.9" font-size="11.5" fill="#111">e4-c5=0  liv:57</text>
<rect x="2610.0" y="214.9" width="150" height="26" rx="5" fill="#e4ecf9" stroke="#24406e" stroke-width="2.0"/>
<text x="2618.0" y="231.9" font-size="11.5" fill="#111">d2-c4=0  liv:56</text>
<rect x="2782.0" y="214.9" width="150" height="26" rx="5" fill="#e4ecf9" stroke="#24406e" stroke-width="2.0"/>
<text x="2790.0" y="231.9" font-size="11.5" fill="#111">e1-c2=1  liv:54</text>
<rect x="2954.0" y="214.9" width="150" height="26" rx="5" fill="#e4ecf9" stroke="#24406e" stroke-width="2.0"/>
<text x="2962.0" y="231.9" font-size="11.5" fill="#111">d1-e3=1  liv:50</text>
<rect x="3126.0" y="214.9" width="150" height="26" rx="5" fill="#e4ecf9" stroke="#24406e" stroke-width="2.0"/>
<text x="3134.0" y="231.9" font-size="11.5" fill="#111">e2-d4=0  liv:49</text>
<rect x="3298.0" y="214.9" width="150" height="26" rx="5" fill="#e4ecf9" stroke="#24406e" stroke-width="2.0"/>
<text x="3306.0" y="231.9" font-size="11.5" fill="#111">d4-b5=0  liv:48</text>
<rect x="3470.0" y="214.9" width="150" height="26" rx="5" fill="#e4ecf9" stroke="#24406e" stroke-width="2.0"/>
<text x="3478.0" y="231.9" font-size="11.5" fill="#111">c4-d6=1  liv:42</text>
<rect x="3642.0" y="214.9" width="150" height="26" rx="5" fill="#e4ecf9" stroke="#24406e" stroke-width="2.0"/>
<text x="3650.0" y="231.9" font-size="11.5" fill="#111">e2-c3=0  liv:39</text>
<rect x="3814.0" y="214.9" width="150" height="26" rx="5" fill="#e4ecf9" stroke="#24406e" stroke-width="2.0"/>
<text x="3822.0" y="231.9" font-size="11.5" fill="#111">b2-c4=0  liv:38</text>
<rect x="3986.0" y="214.9" width="150" height="26" rx="5" fill="#e4ecf9" stroke="#24406e" stroke-width="2.0"/>
<text x="3994.0" y="231.9" font-size="11.5" fill="#111">c4-e5=0  liv:37</text>
<rect x="4158.0" y="93.8" width="150" height="26" rx="5" fill="#e4ecf9" stroke="#24406e" stroke-width="1.0"/>
<text x="4166.0" y="110.8" font-size="11.5" fill="#111">b1-c3=1  liv:27</text>
<rect x="4330.0" y="55.5" width="150" height="26" rx="5" fill="#e4ecf9" stroke="#24406e" stroke-width="1.0"/>
<text x="4338.0" y="72.5" font-size="11.5" fill="#111">a3-c4=1  liv:17</text>
<rect x="4502.0" y="30.0" width="150" height="26" rx="5" fill="#fdeccc" stroke="#b25a00" stroke-width="1.0"/>
<text x="4510.0" y="47.0" font-size="11.5" fill="#111">f3-d4=1  liv:13</text>
<text x="4638.0" y="47.0" font-size="13" fill="#b25a00">↺</text>
<rect x="4502.0" y="81.0" width="150" height="26" rx="5" fill="#e4ecf9" stroke="#24406e" stroke-width="1.0"/>
<text x="4510.0" y="98.0" font-size="11.5" fill="#111">f3-d4=0  liv:13</text>
<rect x="4674.0" y="64.0" width="150" height="26" rx="5" fill="#fdeccc" stroke="#b25a00" stroke-width="1.0"/>
<text x="4682.0" y="81.0" font-size="11.5" fill="#111">d4-c6=1  liv:7</text>
<text x="4810.0" y="81.0" font-size="13" fill="#b25a00">↺</text>
<rect x="4674.0" y="98.0" width="150" height="26" rx="5" fill="#fdeccc" stroke="#b25a00" stroke-width="1.0"/>
<text x="4682.0" y="115.0" font-size="11.5" fill="#111">d4-c6=0  liv:11</text>
<text x="4810.0" y="115.0" font-size="13" fill="#b25a00">↺</text>
<rect x="4330.0" y="132.0" width="150" height="26" rx="5" fill="#fdeccc" stroke="#b25a00" stroke-width="1.0"/>
<text x="4338.0" y="149.0" font-size="11.5" fill="#111">a3-c4=0  liv:25</text>
<text x="4466.0" y="149.0" font-size="13" fill="#b25a00">↺</text>
<rect x="4158.0" y="336.0" width="150" height="26" rx="5" fill="#e4ecf9" stroke="#24406e" stroke-width="2.0"/>
<text x="4166.0" y="353.0" font-size="11.5" fill="#111">b1-c3=0  liv:32</text>
<rect x="4330.0" y="259.5" width="150" height="26" rx="5" fill="#e4ecf9" stroke="#24406e" stroke-width="2.0"/>
<text x="4338.0" y="276.5" font-size="11.5" fill="#111">d3-f4=1  liv:20</text>
<rect x="4502.0" y="208.5" width="150" height="26" rx="5" fill="#e4ecf9" stroke="#24406e" stroke-width="2.0"/>
<text x="4510.0" y="225.5" font-size="11.5" fill="#111">b2-d3=0  liv:11</text>
<rect x="4674.0" y="183.0" width="150" height="26" rx="5" fill="#e4ecf9" stroke="#24406e" stroke-width="2.0"/>
<text x="4682.0" y="200.0" font-size="11.5" fill="#111">a2-c3=1  liv:6</text>
<rect x="4846.0" y="166.0" width="150" height="26" rx="5" fill="#d7f5dd" stroke="#1a7f37" stroke-width="2.0"/>
<text x="4854.0" y="183.0" font-size="11.5" fill="#111">c1-b3=1  liv:1</text>
<text x="4982.0" y="183.0" font-size="13" fill="#1a7f37">✔</text>
<rect x="4846.0" y="200.0" width="150" height="26" rx="5" fill="#fdeccc" stroke="#b25a00" stroke-width="1.0"/>
<text x="4854.0" y="217.0" font-size="11.5" fill="#111">c1-b3=0  liv:2</text>
<text x="4982.0" y="217.0" font-size="13" fill="#b25a00">↺</text>
<rect x="4674.0" y="234.0" width="150" height="26" rx="5" fill="#fdeccc" stroke="#b25a00" stroke-width="1.0"/>
<text x="4682.0" y="251.0" font-size="11.5" fill="#111">a2-c3=0  liv:9</text>
<text x="4810.0" y="251.0" font-size="13" fill="#b25a00">↺</text>
<rect x="4502.0" y="310.5" width="150" height="26" rx="5" fill="#e4ecf9" stroke="#24406e" stroke-width="2.0"/>
<text x="4510.0" y="327.5" font-size="11.5" fill="#111">b2-d3=1  liv:11</text>
<rect x="4674.0" y="285.0" width="150" height="26" rx="5" fill="#e4ecf9" stroke="#24406e" stroke-width="2.0"/>
<text x="4682.0" y="302.0" font-size="11.5" fill="#111">a2-c3=1  liv:6</text>
<rect x="4846.0" y="268.0" width="150" height="26" rx="5" fill="#fdeccc" stroke="#b25a00" stroke-width="1.0"/>
<text x="4854.0" y="285.0" font-size="11.5" fill="#111">b3-a5=1  liv:3</text>
<text x="4982.0" y="285.0" font-size="13" fill="#b25a00">↺</text>
<rect x="4846.0" y="302.0" width="150" height="26" rx="5" fill="#d7f5dd" stroke="#1a7f37" stroke-width="2.0"/>
<text x="4854.0" y="319.0" font-size="11.5" fill="#111">b3-a5=0  liv:0</text>
<text x="4982.0" y="319.0" font-size="13" fill="#1a7f37">✔</text>
<rect x="4674.0" y="336.0" width="150" height="26" rx="5" fill="#fdeccc" stroke="#b25a00" stroke-width="1.0"/>
<text x="4682.0" y="353.0" font-size="11.5" fill="#111">a2-c3=0  liv:2</text>
<text x="4810.0" y="353.0" font-size="13" fill="#b25a00">↺</text>
<rect x="4330.0" y="412.5" width="150" height="26" rx="5" fill="#e4ecf9" stroke="#24406e" stroke-width="2.0"/>
<text x="4338.0" y="429.5" font-size="11.5" fill="#111">d3-f4=0  liv:31</text>
<rect x="4502.0" y="412.5" width="150" height="26" rx="5" fill="#e4ecf9" stroke="#24406e" stroke-width="2.0"/>
<text x="4510.0" y="429.5" font-size="11.5" fill="#111">d1-b2=1  liv:27</text>
<rect x="4674.0" y="412.5" width="150" height="26" rx="5" fill="#e4ecf9" stroke="#24406e" stroke-width="2.0"/>
<text x="4682.0" y="429.5" font-size="11.5" fill="#111">b2-d3=0  liv:25</text>
<rect x="4846.0" y="412.5" width="150" height="26" rx="5" fill="#e4ecf9" stroke="#24406e" stroke-width="2.0"/>
<text x="4854.0" y="429.5" font-size="11.5" fill="#111">f3-d4=1  liv:17</text>
<rect x="5018.0" y="412.5" width="150" height="26" rx="5" fill="#e4ecf9" stroke="#24406e" stroke-width="2.0"/>
<text x="5026.0" y="429.5" font-size="11.5" fill="#111">c1-a2=1  liv:13</text>
<rect x="5190.0" y="387.0" width="150" height="26" rx="5" fill="#e4ecf9" stroke="#24406e" stroke-width="1.0"/>
<text x="5198.0" y="404.0" font-size="11.5" fill="#111">e1-f3=1  liv:8</text>
<rect x="5362.0" y="370.0" width="150" height="26" rx="5" fill="#fdeccc" stroke="#b25a00" stroke-width="1.0"/>
<text x="5370.0" y="387.0" font-size="11.5" fill="#111">c4-a5=1  liv:7</text>
<text x="5498.0" y="387.0" font-size="13" fill="#b25a00">↺</text>
<rect x="5362.0" y="404.0" width="150" height="26" rx="5" fill="#fdeccc" stroke="#b25a00" stroke-width="1.0"/>
<text x="5370.0" y="421.0" font-size="11.5" fill="#111">c4-a5=0  liv:4</text>
<text x="5498.0" y="421.0" font-size="13" fill="#b25a00">↺</text>
<rect x="5190.0" y="438.0" width="150" height="26" rx="5" fill="#e4ecf9" stroke="#24406e" stroke-width="2.0"/>
<text x="5198.0" y="455.0" font-size="11.5" fill="#111">e1-f3=0  liv:8</text>
<rect x="5362.0" y="438.0" width="150" height="26" rx="5" fill="#d7f5dd" stroke="#1a7f37" stroke-width="2.0"/>
<text x="5370.0" y="455.0" font-size="11.5" fill="#111">c4-a5=1  liv:1</text>
<text x="5498.0" y="455.0" font-size="13" fill="#1a7f37">✔</text>
<rect x="30" y="504" width="12" height="12" rx="3" fill="#e4ecf9" stroke="#24406e"/>
<text x="48" y="514" font-size="11" fill="#333">propaga</text>
<rect x="200" y="504" width="12" height="12" rx="3" fill="#fdeccc" stroke="#b25a00"/>
<text x="218" y="514" font-size="11" fill="#333">subciclo (↺)</text>
<rect x="370" y="504" width="12" height="12" rx="3" fill="#fde3e1" stroke="#b42318"/>
<text x="388" y="514" font-size="11" fill="#333">contradição (✘)</text>
<rect x="540" y="504" width="12" height="12" rx="3" fill="#d7f5dd" stroke="#1a7f37"/>
<text x="558" y="514" font-size="11" fill="#333">tour completo (✔)</text>
</svg>