<svg xmlns="http://www.w3.org/2000/svg" width="5370" height="1310" viewBox="0 0 5370 1310" font-family="ui-monospace,Menlo,Consolas,monospace">
<rect width="5370" height="1310" fill="#fbfbfd"/>
<path d="M180.0,869.2 C191.0,869.2 191.0,869.2 202.0,869.2" fill="none" stroke="#1a7f37" stroke-width="2.0"/>
<path d="M352.0,869.2 C363.0,869.2 363.0,869.2 374.0,869.2" fill="none" stroke="#1a7f37" stroke-width="2.0"/>
<path d="M524.0,869.2 C535.0,869.2 535.0,869.2 546.0,869.2" fill="none" stroke="#1a7f37" stroke-width="2.0"/>
<path d="M696.0,869.2 C707.0,869.2 707.0,869.2 718.0,869.2" fill="none" stroke="#1a7f37" stroke-width="2.0"/>
<path d="M868.0,869.2 C879.0,869.2 879.0,869.2 890.0,869.2" fill="none" stroke="#1a7f37" stroke-width="2.0"/>
<path d="M1040.0,869.2 C1051.0,869.2 1051.0,869.2 1062.0,869.2" fill="none" stroke="#1a7f37" stroke-width="2.0"/>
<path d="M1212.0,869.2 C1223.0,869.2 1223.0,869.2 1234.0,869.2" fill="none" stroke="#1a7f37" stroke-width="2.0"/>
<path d="M1384.0,869.2 C1395.0,869.2 1395.0,869.2 1406.0,869.2" fill="none" stroke="#1a7f37" stroke-width="2.0"/>
<path d="M1556.0,869.2 C1567.0,869.2 1567.0,869.2 1578.0,869.2" fill="none" stroke="#1a7f37" stroke-width="2.0"/>
<path d="M1728.0,869.2 C1739.0,869.2 1739.0,869.2 1750.0,869.2" fill="none" stroke="#1a7f37" stroke-width="2.0"/>
<path d="M1900.0,869.2 C1911.0,869.2 1911.0,869.2 1922.0,869.2" fill="none" stroke="#1a7f37" stroke-width="2.0"/>
<path d="M2072.0,869.2 C2083.0,869.2 2083.0,869.2 2094.0,869.2" fill="none" stroke="#1a7f37" stroke-width="2.0"/>
<path d="M2244.0,869.2 C2255.0,869.2 2255.0,869.2 2266.0,869.2" fill="none" stroke="#1a7f37" stroke-width="2.0"/>
<path d="M2416.0,869.2 C2427.0,869.2 2427.0,869.2 2438.0,869.2" fill="none" stroke="#1a7f37" stroke-width="2.0"/>
<path d="M2588.0,869.2 C2599.0,869.2 2599.0,869.2 2610.0,869.2" fill="none" stroke="#1a7f37" stroke-width="2.0"/>
<path d="M2760.0,869.2 C2771.0,869.2 2771.0,869.2 2782.0,869.2" fill="none" stroke="#1a7f37" stroke-width="2.0"/>
<path d="M2932.0,869.2 C2943.0,869.2 2943.0,869.2 2954.0,869.2" fill="none" stroke="#1a7f37" stroke-width="2.0"/>
<path d="M3104.0,869.2 C3115.0,869.2 3115.0,869.2 3126.0,869.2" fill="none" stroke="#1a7f37" stroke-width="2.0"/>
<path d="M3276.0,869.2 C3287.0,869.2 3287.0,869.2 3298.0,869.2" fill="none" stroke="#1a7f37" stroke-width="2.0"/>
<path d="M3448.0,869.2 C3459.0,869.2 3459.0,869.2 3470.0,869.2" fill="none" stroke="#1a7f37" stroke-width="2.0"/>
<path d="M3620.0,869.2 C3631.0,869.2 3631.0,869.2 3642.0,869.2" fill="none" stroke="#1a7f37" stroke-width="2.0"/>
<path d="M3792.0,869.2 C3803.0,869.2 3803.0,582.4 3814.0,582.4" fill="none" stroke="#1a7f37" stroke-width="2.0"/>
<path d="M3964.0,582.4 C3975.0,582.4 3975.0,359.4 3986.0,359.4" fill="none" stroke="#1a7f37" stroke-width="2.0"/>
<path d="M4136.0,359.4 C4147.0,359.4 4147.0,216.7 4158.0,216.7" fill="none" stroke="#1a7f37" stroke-width="2.0"/>
<path d="M4308.0,216.7 C4319.0,216.7 4319.0,101.4 4330.0,101.4" fill="none" stroke="#1a7f37" stroke-width="2.0"/>
<path d="M4480.0,101.4 C4491.0,101.4 4491.0,60.0 4502.0,60.0" fill="none" stroke="#b9c0cc" stroke-width="1.0"/>
<path d="M4652.0,60.0 C4663.0,60.0 4663.0,43.0 4674.0,43.0" fill="none" stroke="#b9c0cc" stroke-width="1.0"/>
<path d="M4652.0,60.0 C4663.0,60.0 4663.0,77.0 4674.0,77.0" fill="none" stroke="#b9c0cc" stroke-width="1.0"/>
<path d="M4480.0,101.4 C4491.0,101.4 4491.0,142.9 4502.0,142.9" fill="none" stroke="#1a7f37" stroke-width="2.0"/>
<path d="M4652.0,142.9 C4663.0,142.9 4663.0,111.0 4674.0,111.0" fill="none" stroke="#b9c0cc" stroke-width="1.0"/>
<path d="M4652.0,142.9 C4663.0,142.9 4663.0,174.8 4674.0,174.8" fill="none" stroke="#1a7f37" stroke-width="2.0"/>
<path d="M4824.0,174.8 C4835.0,174.8 4835.0,145.0 4846.0,145.0" fill="none" stroke="#b9c0cc" stroke-width="1.0"/>
<path d="M4824.0,174.8 C4835.0,174.8 4835.0,204.5 4846.0,204.5" fill="none" stroke="#1a7f37" stroke-width="2.0"/>
<path d="M4996.0,204.5 C5007.0,204.5 5007.0,179.0 5018.0,179.0" fill="none" stroke="#1a7f37" stroke-width="2.0"/>
<path d="M4996.0,204.5 C5007.0,204.5 5007.0,230.0 5018.0,230.0" fill="none" stroke="#b9c0cc" stroke-width="1.0"/>
<path d="M5168.0,230.0 C5179.0,230.0 5179.0,213.0 5190.0,213.0" fill="none" stroke="#b9c0cc" stroke-width="1.0"/>
<path d="M5168.0,230.0 C5179.0,230.0 5179.0,247.0 5190.0,247.0" fill="none" stroke="#b9c0cc" stroke-width="1.0"/>
<path d="M4308.0,216.7 C4319.0,216.7 4319.0,332.0 4330.0,332.0" fill="none" stroke="#b9c0cc" stroke-width="1.0"/>
<path d="M4480.0,332.0 C4491.0,332.0 4491.0,298.0 4502.0,298.0" fill="none" stroke="#b9c0cc" stroke-width="1.0"/>
<path d="M4652.0,298.0 C4663.0,298.0 4663.0,281.0 4674.0,281.0" fill="none" stroke="#b9c0cc" stroke-width="1.0"/>
<path d="M4652.0,298.0 C4663.0,298.0 4663.0,315.0 4674.0,315.0" fill="none" stroke="#b9c0cc" stroke-width="1.0"/>
<path d="M4480.0,332.0 C4491.0,332.0 4491.0,366.0 4502.0,366.0" fill="none" stroke="#b9c0cc" stroke-width="1.0"/>
<path d="M4652.0,366.0 C4663.0,366.0 4663.0,349.0 4674.0,349.0" fill="none" stroke="#b9c0cc" stroke-width="1.0"/>
<path d="M4652.0,366.0 C4663.0,366.0 4663.0,383.0 4674.0,383.0" fill="none" stroke="#b9c0cc" stroke-width="1.0"/>
<path d="M4136.0,359.4 C4147.0,359.4 4147.0,502.0 4158.0,502.0" fill="none" stroke="#b9c0cc" stroke-width="1.0"/>
<path d="M4308.0,502.0 C4319.0,502.0 4319.0,459.5 4330.0,459.5" fill="none" stroke="#b9c0cc" stroke-width="1.0"/>
<path d="M4480.0,459.5 C4491.0,459.5 4491.0,434.0 4502.0,434.0" fill="none" stroke="#b9c0cc" stroke-width="1.0"/>
<path d="M4652.0,434.0 C4663.0,434.0 4663.0,417.0 4674.0,417.0" fill="none" stroke="#b9c0cc" stroke-width="1.0"/>
<path d="M4652.0,434.0 C4663.0,434.0 4663.0,451.0 4674.0,451.0" fill="none" stroke="#b9c0cc" stroke-width="1.0"/>
<path d="M4480.0,459.5 C4491.0,459.5 4491.0,485.0 4502.0,485.0" fill="none" stroke="#b9c0cc" stroke-width="1.0"/>
<path d="M4308.0,502.0 C4319.0,502.0 4319.0,544.5 4330.0,544.5" fill="none" stroke="#b9c0cc" stroke-width="1.0"/>
<path d="M4480.0,544.5 C4491.0,544.5 4491.0,519.0 4502.0,519.0" fill="none" stroke="#b9c0cc" stroke-width="1.0"/>
<path d="M4480.0,544.5 C4491.0,544.5 4491.0,570.0 4502.0,570.0" fill="none" stroke="#b9c0cc" stroke-width="1.0"/>
<path d="M4652.0,570.0 C4663.0,570.0 4663.0,553.0 4674.0,553.0" fill="none" stroke="#b9c0cc" stroke-width="1.0"/>
<path d="M4652.0,570.0 C4663.0,570.0 4663.0,587.0 4674.0,587.0" fill="none" stroke="#b9c0cc" stroke-width="1.0"/>
<path d="M3964.0,582.4 C3975.0,582.4 3975.0,805.3 3986.0,805.3" fill="none" stroke="#b9c0cc" stroke-width="1.0"/>
<path d="M4136.0,805.3 C4147.0,805.3 4147.0,692.2 4158.0,692.2" fill="none" stroke="#b9c0cc" stroke-width="1.0"/>
<path d="M4308.0,692.2 C4319.0,692.2 4319.0,638.0 4330.0,638.0" fill="none" stroke="#b9c0cc" stroke-width="1.0"/>
<path d="M4480.0,638.0 C4491.0,638.0 4491.0,621.0 4502.0,621.0" fill="none" stroke="#b9c0cc" stroke-width="1.0"/>
<path d="M4480.0,638.0 C4491.0,638.0 4491.0,655.0 4502.0,655.0" fill="none" stroke="#b9c0cc" stroke-width="1.0"/>
<path d="M4308.0,692.2 C4319.0,692.2 4319.0,746.4 4330.0,746.4" fill="none" stroke="#b9c0cc" stroke-width="1.0"/>
<path d="M4480.0,746.4 C4491.0,746.4 4491.0,706.0 4502.0,706.0" fill="none" stroke="#b9c0cc" stroke-width="1.0"/>
<path d="M4652.0,706.0 C4663.0,706.0 4663.0,689.0 4674.0,689.0" fill="none" stroke="#b9c0cc" stroke-width="1.0"/>
<path d="M4652.0,706.0 C4663.0,706.0 4663.0,723.0 4674.0,723.0" fill="none" stroke="#b9c0cc" stroke-width="1.0"/>
<path d="M4480.0,746.4 C4491.0,746.4 4491.0,786.8 4502.0,786.8" fill="none" stroke="#b9c0cc" stroke-width="1.0"/>
<path d="M4652.0,786.8 C4663.0,786.8 4663.0,757.0 4674.0,757.0" fill="none" stroke="#b9c0cc" stroke-width="1.0"/>
<path d="M4652.0,786.8 C4663.0,786.8 4663.0,816.5 4674.0,816.5" fill="none" stroke="#b9c0cc" stroke-width="1.0"/>
<path d="M4824.0,816.5 C4835.0,816.5 4835.0,791.0 4846.0,791.0" fill="none" stroke="#b9c0cc" stroke-width="1.0"/>
<path d="M4824.0,816.5 C4835.0,816.5 4835.0,842.0 4846.0,842.0" fill="none" stroke="#b9c0cc" stroke-width="1.0"/>
<path d="M4996.0,842.0 C5007.0,842.0 5007.0,825.0 5018.0,825.0" fill="none" stroke="#b9c0cc" stroke-width="1.0"/>
<path d="M4996.0,842.0 C5007.0,842.0 5007.0,859.0 5018.0,859.0" fill="none" stroke="#b9c0cc" stroke-width="1.0"/>
<path d="M4136.0,805.3 C4147.0,805.3 4147.0,918.5 4158.0,918.5" fill="none" stroke="#b9c0cc" stroke-width="1.0"/>
<path d="M4308.0,918.5 C4319.0,918.5 4319.0,893.0 4330.0,893.0" fill="none" stroke="#b9c0cc" stroke-width="1.0"/>
<path d="M4308.0,918.5 C4319.0,918.5 4319.0,944.0 4330.0,944.0" fill="none" stroke="#b9c0cc" stroke-width="1.0"/>
<path d="M4480.0,944.0 C4491.0,944.0 4491.0,927.0 4502.0,927.0" fill="none" stroke="#b9c0cc" stroke-width="1.0"/>
<path d="M4480.0,944.0 C4491.0,944.0 4491.0,961.0 4502.0,961.0" fill="none" stroke="#b9c0cc" stroke-width="1.0"/>
<path d="M3792.0,869.2 C3803.0,869.2 3803.0,1156.0 3814.0,1156.0" fill="none" stroke="#1a7f37" stroke-width="2.0"/>
<path d="M3964.0,1156.0 C3975.0,1156.0 3975.0,1095.9 3986.0,1095.9" fill="none" stroke="#1a7f37" stroke-width="2.0"/>
<path d="M4136.0,1095.9 C4147.0,1095.9 4147.0,1026.9 4158.0,1026.9" fill="none" stroke="#1a7f37" stroke-width="2.0"/>
<path d="M4308.0,1026.9 C4319.0,1026.9 4319.0,995.0 4330.0,995.0" fill="none" stroke="#b9c0cc" stroke-width="1.0"/>
<path d="M4308.0,1026.9 C4319.0,1026.9 4319.0,1058.8 4330.0,1058.8" fill="none" stroke="#1a7f37" stroke-width="2.0"/>
<path d="M4480.0,1058.8 C4491.0,1058.8 4491.0,1029.0 4502.0,1029.0" fill="none" stroke="#b9c0cc" stroke-width="1.0"/>
<path d="M4480.0,1058.8 C4491.0,1058.8 4491.0,1088.5 4502.0,1088.5" fill="none" stroke="#1a7f37" stroke-width="2.0"/>
<path d="M4652.0,1088.5 C4663.0,1088.5 4663.0,1063.0 4674.0,1063.0" fill="none" stroke="#b9c0cc" stroke-width="1.0"/>
<path d="M4652.0,1088.5 C4663.0,1088.5 4663.0,1114.0 4674.0,1114.0" fill="none" stroke="#1a7f37" stroke-width="2.0"/>
<path d="M4824.0,1114.0 C4835.0,1114.0 4835.0,1097.0 4846.0,1097.0" fill="none" stroke="#1a7f37" stroke-width="2.0"/>
<path d="M4824.0,1114.0 C4835.0,1114.0 4835.0,1131.0 4846.0,1131.0" fill="none" stroke="#b9c0cc" stroke-width="1.0"/>
<path d="M4136.0,1095.9 C4147.0,1095.9 4147.0,1165.0 4158.0,1165.0" fill="none" stroke="#b9c0cc" stroke-width="1.0"/>
<path d="M3964.0,1156.0 C3975.0,1156.0 3975.0,1216.0 3986.0,1216.0" fill="none" stroke="#1a7f37" stroke-width="2.0"/>
<path d="M4136.0,1216.0 C4147.0,1216.0 4147.0,1216.0 4158.0,1216.0" fill="none" stroke="#1a7f37" stroke-width="2.0"/>
<path d="M4308.0,1216.0 C4319.0,1216.0 4319.0,1216.0 4330.0,1216.0" fill="none" stroke="#1a7f37" stroke-width="2.0"/>
<path d="M4480.0,1216.0 C4491.0,1216.0 4491.0,1199.0 4502.0,1199.0" fill="none" stroke="#b9c0cc" stroke-width="1.0"/>
<path d="M4480.0,1216.0 C4491.0,1216.0 4491.0,1233.0 4502.0,1233.0" fill="none" stroke="#1a7f37" stroke-width="2.0"/>
<rect x="30.0" y="856.2" width="150" height="26" rx="5" fill="#e4ecf9" stroke="#24406e" stroke-width="2.0"/>
<text x="38.0" y="873.2" font-size="11.5" fill="#111">b3-c5=0  liv:71</text>
<rect x="202.0" y="856.2" width="150" height="26" rx="5" fill="#e4ecf9" stroke="#24406e" stroke-width="2.0"/>
<text x="210.0" y="873.2" font-size="11.5" fill="#111">c3-d5=0  liv:70</text>
<rect x="374.0" y="856.2" width="150" height="26" rx="5" fill="#e4ecf9" stroke="#24406e" stroke-width="2.0"/>
<text x="382.0" y="873.2" font-size="11.5" fill="#111">d2-b3=0  liv:69</text>
<rect x="546.0" y="856.2" width="150" height="26" rx="5" fill="#e4ecf9" stroke="#24406e" stroke-width="2.0"/>
<text x="554.0" y="873.2" font-size="11.5" fill="#111">c2-e3=0  liv:68</text>
<rect x="718.0" y="856.2" width="150" height="26" rx="5" fill="#e4ecf9" stroke="#24406e" stroke-width="2.0"/>
<text x="726.0" y="873.2" font-size="11.5" fill="#111">d2-e4=0  liv:67</text>
<rect x="890.0" y="856.2" width="150" height="26" rx="5" fill="#e4ecf9" stroke="#24406e" stroke-width="2.0"/>
<text x="898.0" y="873.2" font-size="11.5" fill="#111">c2-b4=0  liv:66</text>
<rect x="1062.0" y="856.2" width="150" height="26" rx="5" fill="#e4ecf9" stroke="#24406e" stroke-width="2.0"/>
<text x="1070.0" y="873.2" font-size="11.5" fill="#111">e3-d5=0  liv:65</text>
<rect x="1234.0" y="856.2" width="150" height="26" rx="5" fill="#e4ecf9" stroke="#24406e" stroke-width="2.0"/>
<text x="1242.0" y="873.2" font-size="11.5" fill="#111">c3-e4=0  liv:64</text>
<rect x="1406.0" y="856.2" width="150" height="26" rx="5" fill="#e4ecf9" stroke="#24406e" stroke-width="2.0"/>
<text x="1414.0" y="873.2" font-size="11.5" fill="#111">d3-b4=0  liv:63</text>
<rect x="1578.0" y="856.2" width="150" height="26" rx="5" fill="#e4ecf9" stroke="#24406e" stroke-width="2.0"/>
<text x="1586.0" y="873.2" font-size="11.5" fill="#111">d3-c5=0  liv:62</text>
<rect x="1750.0" y="856.2" width="150" height="26" rx="5" fill="#e4ecf9" stroke="#24406e" stroke-width="2.0"/>
<text x="1758.0" y="873.2" font-size="11.5" fill="#111">e4-c5=0  liv:61</text>
<rect x="1922.0" y="856.2" width="150" height="26" rx="5" fill="#e4ecf9" stroke="#24406e" stroke-width="2.0"/>
<text x="1930.0" y="873.2" font-size="11.5" fill="#111">e3-c4=0  liv:60</text>
<rect x="2094.0" y="856.2" width="150" height="26" rx="5" fill="#e4ecf9" stroke="#24406e" stroke-width="2.0"/>
<text x="2102.0" y="873.2" font-size="11.5" fill="#111">c2-d4=0  liv:59</text>
<rect x="2266.0" y="856.2" width="150" height="26" rx="5" fill="#e4ecf9" stroke="#24406e" stroke-width="2.0"/>
<text x="2274.0" y="873.2" font-size="11.5" fill="#111">d2-c4=0  liv:58</text>
<rect x="2438.0" y="856.2" width="150" height="26" rx="5" fill="#e4ecf9" stroke="#24406e" stroke-width="2.0"/>
<text x="2446.0" y="873.2" font-size="11.5" fill="#111">b4-d5=0  liv:57</text>
<rect x="2610.0" y="856.2" width="150" height="26" rx="5" fill="#e4ecf9" stroke="#24406e" stroke-width="2.0"/>
<text x="2618.0" y="873.2" font-size="11.5" fill="#111">b3-d4=0  liv:56</text>
<rect x="2782.0" y="856.2" width="150" height="26" rx="5" fill="#e4ecf9" stroke="#24406e" stroke-width="2.0"/>
<text x="2790.0" y="873.2" font-size="11.5" fill="#111">f2-e4=1  liv:54</text>
<rect x="2954.0" y="856.2" width="150" height="26" rx="5" fill="#e4ecf9" stroke="#24406e" stroke-width="2.0"/>
<text x="2962.0" y="873.2" font-size="11.5" fill="#111">c1-b3=1  liv:50</text>
<rect x="3126.0" y="856.2" width="150" height="26" rx="5" fill="#e4ecf9" stroke="#24406e" stroke-width="2.0"/>
<text x="3134.0" y="873.2" font-size="11.5" fill="#111">b2-c4=0  liv:49</text>
<rect x="3298.0" y="856.2" width="150" height="26" rx="5" fill="#e4ecf9" stroke="#24406e" stroke-width="2.0"/>
<text x="3306.0" y="873.2" font-size="11.5" fill="#111">c4-e5=0  liv:48</text>
<rect x="3470.0" y="856.2" width="150" height="26" rx="5" fill="#e4ecf9" stroke="#24406e" stroke-width="2.0"/>
<text x="3478.0" y="873.2" font-size="11.5" fill="#111">b4-c6=1  liv:38</text>
<rect x="3642.0" y="856.2" width="150" height="26" rx="5" fill="#e4ecf9" stroke="#24406e" stroke-width="2.0"/>
<text x="3650.0" y="873.2" font-size="11.5" fill="#111">e2-c3=0  liv:35</text>
<rect x="3814.0" y="569.4" width="150" height="26" rx="5" fill="#e4ecf9" stroke="#24406e" stroke-width="2.0"/>
<text x="3822.0" y="586.4" font-size="11.5" fill="#111">c3-b5=0  liv:34</text>
<rect x="3986.0" y="346.4" width="150" height="26" rx="5" fill="#e4ecf9" stroke="#24406e" stroke-width="2.0"/>
<text x="3994.0" y="363.4" font-size="11.5" fill="#111">b2-d3=0  liv:31</text>
<rect x="4158.0" y="203.7" width="150" height="26" rx="5" fill="#e4ecf9" stroke="#24406e" stroke-width="2.0"/>
<text x="4166.0" y="220.7" font-size="11.5" fill="#111">d4-b5=0  liv:28</text>
<rect x="4330.0" y="88.4" width="150" height="26" rx="5" fill="#e4ecf9" stroke="#24406e" stroke-width="2.0"/>
<text x="4338.0" y="105.4" font-size="11.5" fill="#111">e1-f3=1  liv:24</text>
<rect x="4502.0" y="47.0" width="150" height="26" rx="5" fill="#e4ecf9" stroke="#24406e" stroke-width="1.0"/>
<text x="4510.0" y="64.0" font-size="11.5" fill="#111">d3-f4=1  liv:6</text>
<rect x="4674.0" y="30.0" width="150" height="26" rx="5" fill="#fdeccc" stroke="#b25a00" stroke-width="1.0"/>
<text x="4682.0" y="47.0" font-size="11.5" fill="#111">b1-a3=1  liv:5</text>
<text x="4810.0" y="47.0" font-size="13" fill="#b25a00">↺</text>
<rect x="4674.0" y="64.0" width="150" height="26" rx="5" fill="#fdeccc" stroke="#b25a00" stroke-width="1.0"/>
<text x="4682.0" y="81.0" font-size="11.5" fill="#111">b1-a3=0  liv:2</text>
<text x="4810.0" y="81.0" font-size="13" fill="#b25a00">↺</text>
<rect x="4502.0" y="129.9" width="150" height="26" rx="5" fill="#e4ecf9" stroke="#24406e" stroke-width="2.0"/>
<text x="4510.0" y="146.9" font-size="11.5" fill="#111">d3-f4=0  liv:23</text>
<rect x="4674.0" y="98.0" width="150" height="26" rx="5" fill="#fdeccc" stroke="#b25a00" stroke-width="1.0"/>
<text x="4682.0" y="115.0" font-size="11.5" fill="#111">a3-c4=1  liv:10</text>
<text x="4810.0" y="115.0" font-size="13" fill="#b25a00">↺</text>
<rect x="4674.0" y="161.8" width="150" height="26" rx="5" fill="#e4ecf9" stroke="#24406e" stroke-width="2.0"/>
<text x="4682.0" y="178.8" font-size="11.5" fill="#111">a3-c4=0  liv:22</text>
<rect x="4846.0" y="132.0" width="150" height="26" rx="5" fill="#fdeccc" stroke="#b25a00" stroke-width="1.0"/>
<text x="4854.0" y="149.0" font-size="11.5" fill="#111">d1-f2=1  liv:19</text>
<text x="4982.0" y="149.0" font-size="13" fill="#b25a00">↺</text>
<rect x="4846.0" y="191.5" width="150" height="26" rx="5" fill="#e4ecf9" stroke="#24406e" stroke-width="2.0"/>
<text x="4854.0" y="208.5" font-size="11.5" fill="#111">d1-f2=0  liv:15</text>
<rect x="5018.0" y="166.0" width="150" height="26" rx="5" fill="#d7f5dd" stroke="#1a7f37" stroke-width="2.0"/>
<text x="5026.0" y="183.0" font-size="11.5" fill="#111">c3-a4=1  liv:1</text>
<text x="5154.0" y="183.0" font-size="13" fill="#1a7f37">✔</text>
<rect x="5018.0" y="217.0" width="150" height="26" rx="5" fill="#e4ecf9" stroke="#24406e" stroke-width="1.0"/>
<text x="5026.0" y="234.0" font-size="11.5" fill="#111">c3-a4=0  liv:11</text>
<rect x="5190.0" y="200.0" width="150" height="26" rx="5" fill="#fdeccc" stroke="#b25a00" stroke-width="1.0"/>
<text x="5198.0" y="217.0" font-size="11.5" fill="#111">d4-f5=1  liv:5</text>
<text x="5326.0" y="217.0" font-size="13" fill="#b25a00">↺</text>
<rect x="5190.0" y="234.0" width="150" height="26" rx="5" fill="#fdeccc" stroke="#b25a00" stroke-width="1.0"/>
<text x="5198.0" y="251.0" font-size="11.5" fill="#111">d4-f5=0  liv:9</text>
<text x="5326.0" y="251.0" font-size="13" fill="#b25a00">↺</text>
<rect x="4330.0" y="319.0" width="150" height="26" rx="5" fill="#e4ecf9" stroke="#24406e" stroke-width="1.0"/>
<text x="4338.0" y="336.0" font-size="11.5" fill="#111">e1-f3=0  liv:18</text>
<rect x="4502.0" y="285.0" width="150" height="26" rx="5" fill="#e4ecf9" stroke="#24406e" stroke-width="1.0"/>
<text x="4510.0" y="302.0" font-size="11.5" fill="#111">f3-d4=1  liv:6</text>
<rect x="4674.0" y="268.0" width="150" height="26" rx="5" fill="#fdeccc" stroke="#b25a00" stroke-width="1.0"/>
<text x="4682.0" y="285.0" font-size="11.5" fill="#111">c3-a4=1  liv:3</text>
<text x="4810.0" y="285.0" font-size="13" fill="#b25a00">↺</text>
<rect x="4674.0" y="302.0" width="150" height="26" rx="5" fill="#fdeccc" stroke="#b25a00" stroke-width="1.0"/>
<text x="4682.0" y="319.0" font-size="11.5" fill="#111">c3-a4=0  liv:4</text>
<text x="4810.0" y="319.0" font-size="13" fill="#b25a00">↺</text>
<rect x="4502.0" y="353.0" width="150" height="26" rx="5" fill="#e4ecf9" stroke="#24406e" stroke-width="1.0"/>
<text x="4510.0" y="370.0" font-size="11.5" fill="#111">f3-d4=0  liv:11</text>
<rect x="4674.0" y="336.0" width="150" height="26" rx="5" fill="#fdeccc" stroke="#b25a00" stroke-width="1.0"/>
<text x="4682.0" y="353.0" font-size="11.5" fill="#111">c4-d6=1  liv:5</text>
<text x="4810.0" y="353.0" font-size="13" fill="#b25a00">↺</text>
<rect x="4674.0" y="370.0" width="150" height="26" rx="5" fill="#fdeccc" stroke="#b25a00" stroke-width="1.0"/>
<text x="4682.0" y="387.0" font-size="11.5" fill="#111">c4-d6=0  liv:9</text>
<text x="4810.0" y="387.0" font-size="13" fill="#b25a00">↺</text>
<rect x="4158.0" y="489.0" width="150" height="26" rx="5" fill="#e4ecf9" stroke="#24406e" stroke-width="1.0"/>
<text x="4166.0" y="506.0" font-size="11.5" fill="#111">d4-b5=1  liv:18</text>
<rect x="4330.0" y="446.5" width="150" height="26" rx="5" fill="#e4ecf9" stroke="#24406e" stroke-width="1.0"/>
<text x="4338.0" y="463.5" font-size="11.5" fill="#111">a3-c4=1  liv:11</text>
<rect x="4502.0" y="421.0" width="150" height="26" rx="5" fill="#e4ecf9" stroke="#24406e" stroke-width="1.0"/>
<text x="4510.0" y="438.0" font-size="11.5" fill="#111">e1-f3=1  liv:8</text>
<rect x="4674.0" y="404.0" width="150" height="26" rx="5" fill="#fdeccc" stroke="#b25a00" stroke-width="1.0"/>
<text x="4682.0" y="421.0" font-size="11.5" fill="#111">b1-c3=1  liv:5</text>
<text x="4810.0" y="421.0" font-size="13" fill="#b25a00">↺</text>
<rect x="4674.0" y="438.0" width="150" height="26" rx="5" fill="#fdeccc" stroke="#b25a00" stroke-width="1.0"/>
<text x="4682.0" y="455.0" font-size="11.5" fill="#111">b1-c3=0  liv:2</text>
<text x="4810.0" y="455.0" font-size="13" fill="#b25a00">↺</text>
<rect x="4502.0" y="472.0" width="150" height="26" rx="5" fill="#fdeccc" stroke="#b25a00" stroke-width="1.0"/>
<text x="4510.0" y="489.0" font-size="11.5" fill="#111">e1-f3=0  liv:5</text>
<text x="4638.0" y="489.0" font-size="13" fill="#b25a00">↺</text>
<rect x="4330.0" y="531.5" width="150" height="26" rx="5" fill="#e4ecf9" stroke="#24406e" stroke-width="1.0"/>
<text x="4338.0" y="548.5" font-size="11.5" fill="#111">a3-c4=0  liv:17</text>
<rect x="4502.0" y="506.0" width="150" height="26" rx="5" fill="#fdeccc" stroke="#b25a00" stroke-width="1.0"/>
<text x="4510.0" y="523.0" font-size="11.5" fill="#111">b1-c3=1  liv:8</text>
<text x="4638.0" y="523.0" font-size="13" fill="#b25a00">↺</text>
<rect x="4502.0" y="557.0" width="150" height="26" rx="5" fill="#e4ecf9" stroke="#24406e" stroke-width="1.0"/>
<text x="4510.0" y="574.0" font-size="11.5" fill="#111">b1-c3=0  liv:12</text>
<rect x="4674.0" y="540.0" width="150" height="26" rx="5" fill="#fdeccc" stroke="#b25a00" stroke-width="1.0"/>
<text x="4682.0" y="557.0" font-size="11.5" fill="#111">e1-c2=1  liv:7</text>
<text x="4810.0" y="557.0" font-size="13" fill="#b25a00">↺</text>
<rect x="4674.0" y="574.0" width="150" height="26" rx="5" fill="#fdeccc" stroke="#b25a00" stroke-width="1.0"/>
<text x="4682.0" y="591.0" font-size="11.5" fill="#111">e1-c2=0  liv:2</text>
<text x="4810.0" y="591.0" font-size="13" fill="#b25a00">↺</text>
<rect x="3986.0" y="792.3" width="150" height="26" rx="5" fill="#e4ecf9" stroke="#24406e" stroke-width="1.0"/>
<text x="3994.0" y="809.3" font-size="11.5" fill="#111">b2-d3=1  liv:23</text>
<rect x="4158.0" y="679.2" width="150" height="26" rx="5" fill="#e4ecf9" stroke="#24406e" stroke-width="1.0"/>
<text x="4166.0" y="696.2" font-size="11.5" fill="#111">d4-b5=0  liv:20</text>
<rect x="4330.0" y="625.0" width="150" height="26" rx="5" fill="#e4ecf9" stroke="#24406e" stroke-width="1.0"/>
<text x="4338.0" y="642.0" font-size="11.5" fill="#111">a3-c4=1  liv:8</text>
<rect x="4502.0" y="608.0" width="150" height="26" rx="5" fill="#fdeccc" stroke="#b25a00" stroke-width="1.0"/>
<text x="4510.0" y="625.0" font-size="11.5" fill="#111">d1-b2=1  liv:3</text>
<text x="4638.0" y="625.0" font-size="13" fill="#b25a00">↺</text>
<rect x="4502.0" y="642.0" width="150" height="26" rx="5" fill="#fdeccc" stroke="#b25a00" stroke-width="1.0"/>
<text x="4510.0" y="659.0" font-size="11.5" fill="#111">d1-b2=0  liv:2</text>
<text x="4638.0" y="659.0" font-size="13" fill="#b25a00">↺</text>
<rect x="4330.0" y="733.4" width="150" height="26" rx="5" fill="#e4ecf9" stroke="#24406e" stroke-width="1.0"/>
<text x="4338.0" y="750.4" font-size="11.5" fill="#111">a3-c4=0  liv:17</text>
<rect x="4502.0" y="693.0" width="150" height="26" rx="5" fill="#e4ecf9" stroke="#24406e" stroke-width="1.0"/>
<text x="4510.0" y="710.0" font-size="11.5" fill="#111">d1-b2=1  liv:11</text>
<rect x="4674.0" y="676.0" width="150" height="26" rx="5" fill="#fdeccc" stroke="#b25a00" stroke-width="1.0"/>
<text x="4682.0" y="693.0" font-size="11.5" fill="#111">c4-d6=1  liv:5</text>
<text x="4810.0" y="693.0" font-size="13" fill="#b25a00">↺</text>
<rect x="4674.0" y="710.0" width="150" height="26" rx="5" fill="#fdeccc" stroke="#b25a00" stroke-width="1.0"/>
<text x="4682.0" y="727.0" font-size="11.5" fill="#111">c4-d6=0  liv:9</text>
<text x="4810.0" y="727.0" font-size="13" fill="#b25a00">↺</text>
<rect x="4502.0" y="773.8" width="150" height="26" rx="5" fill="#e4ecf9" stroke="#24406e" stroke-width="1.0"/>
<text x="4510.0" y="790.8" font-size="11.5" fill="#111">d1-b2=0  liv:15</text>
<rect x="4674.0" y="744.0" width="150" height="26" rx="5" fill="#fdeccc" stroke="#b25a00" stroke-width="1.0"/>
<text x="4682.0" y="761.0" font-size="11.5" fill="#111">c3-a4=1  liv:14</text>
<text x="4810.0" y="761.0" font-size="13" fill="#b25a00">↺</text>
<rect x="4674.0" y="803.5" width="150" height="26" rx="5" fill="#e4ecf9" stroke="#24406e" stroke-width="1.0"/>
<text x="4682.0" y="820.5" font-size="11.5" fill="#111">c3-a4=0  liv:11</text>
<rect x="4846.0" y="778.0" width="150" height="26" rx="5" fill="#fdeccc" stroke="#b25a00" stroke-width="1.0"/>
<text x="4854.0" y="795.0" font-size="11.5" fill="#111">f4-d5=1  liv:3</text>
<text x="4982.0" y="795.0" font-size="13" fill="#b25a00">↺</text>
<rect x="4846.0" y="829.0" width="150" height="26" rx="5" fill="#e4ecf9" stroke="#24406e" stroke-width="1.0"/>
<text x="4854.0" y="846.0" font-size="11.5" fill="#111">f4-d5=0  liv:8</text>
<rect x="5018.0" y="812.0" width="150" height="26" rx="5" fill="#fdeccc" stroke="#b25a00" stroke-width="1.0"/>
<text x="5026.0" y="829.0" font-size="11.5" fill="#111">d4-f5=1  liv:3</text>
<text x="5154.0" y="829.0" font-size="13" fill="#b25a00">↺</text>
<rect x="5018.0" y="846.0" width="150" height="26" rx="5" fill="#fdeccc" stroke="#b25a00" stroke-width="1.0"/>
<text x="5026.0" y="863.0" font-size="11.5" fill="#111">d4-f5=0  liv:6</text>
<text x="5154.0" y="863.0" font-size="13" fill="#b25a00">↺</text>
<rect x="4158.0" y="905.5" width="150" height="26" rx="5" fill="#e4ecf9" stroke="#24406e" stroke-width="1.0"/>
<text x="4166.0" y="922.5" font-size="11.5" fill="#111">d4-b5=1  liv:12</text>
<rect x="4330.0" y="880.0" width="150" height="26" rx="5" fill="#fde3e1" stroke="#b42318" stroke-width="1.0"/>
<text x="4338.0" y="897.0" font-size="11.5" fill="#111">b1-c3=1  liv:5</text>
<text x="4466.0" y="897.0" font-size="13" fill="#b42318">✘</text>
<rect x="4330.0" y="931.0" width="150" height="26" rx="5" fill="#e4ecf9" stroke="#24406e" stroke-width="1.0"/>
<text x="4338.0" y="948.0" font-size="11.5" fill="#111">b1-c3=0  liv:10</text>
<rect x="4502.0" y="914.0" width="150" height="26" rx="5" fill="#fdeccc" stroke="#b25a00" stroke-width="1.0"/>
<text x="4510.0" y="931.0" font-size="11.5" fill="#111">a3-c4=1  liv:7</text>
<text x="4638.0" y="931.0" font-size="13" fill="#b25a00">↺</text>
<rect x="4502.0" y="948.0" width="150" height="26" rx="5" fill="#fdeccc" stroke="#b25a00" stroke-width="1.0"/>
<text x="4510.0" y="965.0" font-size="11.5" fill="#111">a3-c4=0  liv:6</text>
<text x="4638.0" y="965.0" font-size="13" fill="#b25a00">↺</text>
<rect x="3814.0" y="1143.0" width="150" height="26" rx="5" fill="#e4ecf9" stroke="#24406e" stroke-width="2.0"/>
<text x="3822.0" y="1160.0" font-size="11.5" fill="#111">c3-b5=1  liv:28</text>
<rect x="3986.0" y="1082.9" width="150" height="26" rx="5" fill="#e4ecf9" stroke="#24406e" stroke-width="2.0"/>
<text x="3994.0" y="1099.9" font-size="11.5" fill="#111">b2-d3=0  liv:25</text>
<rect x="4158.0" y="1013.9" width="150" height="26" rx="5" fill="#e4ecf9" stroke="#24406e" stroke-width="2.0"/>
<text x="4166.0" y="1030.9" font-size="11.5" fill="#111">d4-b5=0  liv:24</text>
<rect x="4330.0" y="982.0" width="150" height="26" rx="5" fill="#fdeccc" stroke="#b25a00" stroke-width="1.0"/>
<text x="4338.0" y="999.0" font-size="11.5" fill="#111">d3-f4=1  liv:5</text>
<text x="4466.0" y="999.0" font-size="13" fill="#b25a00">↺</text>
<rect x="4330.0" y="1045.8" width="150" height="26" rx="5" fill="#e4ecf9" stroke="#24406e" stroke-width="2.0"/>
<text x="4338.0" y="1062.8" font-size="11.5" fill="#111">d3-f4=0  liv:23</text>
<rect x="4502.0" y="1016.0" width="150" height="26" rx="5" fill="#fdeccc" stroke="#b25a00" stroke-width="1.0"/>
<text x="4510.0" y="1033.0" font-size="11.5" fill="#111">f3-d4=1  liv:9</text>
<text x="4638.0" y="1033.0" font-size="13" fill="#b25a00">↺</text>
<rect x="4502.0" y="1075.5" width="150" height="26" rx="5" fill="#e4ecf9" stroke="#24406e" stroke-width="2.0"/>
<text x="4510.0" y="1092.5" font-size="11.5" fill="#111">f3-d4=0  liv:21</text>
<rect x="4674.0" y="1050.0" width="150" height="26" rx="5" fill="#fdeccc" stroke="#b25a00" stroke-width="1.0"/>
<text x="4682.0" y="1067.0" font-size="11.5" fill="#111">c2-a3=1  liv:15</text>
<text x="4810.0" y="1067.0" font-size="13" fill="#b25a00">↺</text>
<rect x="4674.0" y="1101.0" width="150" height="26" rx="5" fill="#e4ecf9" stroke="#24406e" stroke-width="2.0"/>
<text x="4682.0" y="1118.0" font-size="11.5" fill="#111">c2-a3=0  liv:4</text>
<rect x="4846.0" y="1084.0" width="150" height="26" rx="5" fill="#d7f5dd" stroke="#1a7f37" stroke-width="2.0"/>
<text x="4854.0" y="1101.0" font-size="11.5" fill="#111">a3-c4=1  liv:1</text>
<text x="4982.0" y="1101.0" font-size="13" fill="#1a7f37">✔</text>
<rect x="4846.0" y="1118.0" width="150" height="26" rx="5" fill="#fdeccc" stroke="#b25a00" stroke-width="1.0"/>
<text x="4854.0" y="1135.0" font-size="11.5" fill="#111">a3-c4=0  liv:2</text>
<text x="4982.0" y="1135.0" font-size="13" fill="#b25a00">↺</text>
<rect x="4158.0" y="1152.0" width="150" height="26" rx="5" fill="#fdeccc" stroke="#b25a00" stroke-width="1.0"/>
<text x="4166.0" y="1169.0" font-size="11.5" fill="#111">d4-b5=1  liv:4</text>
<text x="4294.0" y="1169.0" font-size="13" fill="#b25a00">↺</text>
<rect x="3986.0" y="1203.0" width="150" height="26" rx="5" fill="#e4ecf9" stroke="#24406e" stroke-width="2.0"/>
<text x="3994.0" y="1220.0" font-size="11.5" fill="#111">b2-d3=1  liv:19</text>
<rect x="4158.0" y="1203.0" width="150" height="26" rx="5" fill="#e4ecf9" stroke="#24406e" stroke-width="2.0"/>
<text x="4166.0" y="1220.0" font-size="11.5" fill="#111">d4-b5=0  liv:18</text>
<rect x="4330.0" y="1203.0" width="150" height="26" rx="5" fill="#e4ecf9" stroke="#24406e" stroke-width="2.0"/>
<text x="4338.0" y="1220.0" font-size="11.5" fill="#111">a3-c4=1  liv:8</text>
<rect x="4502.0" y="1186.0" width="150" height="26" rx="5" fill="#fdeccc" stroke="#b25a00" stroke-width="1.0"/>
<text x="4510.0" y="1203.0" font-size="11.5" fill="#111">a4-c5=1  liv:5</text>
<text x="4638.0" y="1203.0" font-size="13" fill="#b25a00">↺</text>
<rect x="4502.0" y="1220.0" width="150" height="26" rx="5" fill="#d7f5dd" stroke="#1a7f37" stroke-width="2.0"/>
<text x="4510.0" y="1237.0" font-size="11.5" fill="#111">a4-c5=0  liv:0</text>
<text x="4638.0" y="1237.0" font-size="13" fill="#1a7f37">✔</text>
<rect x="30" y="1286" width="12" height="12" rx="3" fill="#e4ecf9" stroke="#24406e"/>
<text x="48" y="1296" font-size="11" fill="#333">propaga</text>
<rect x="200" y="1286" width="12" height="12" rx="3" fill="#fdeccc" stroke="#b25a00"/>
<text x="218" y="1296" font-size="11" fill="#333">subciclo (↺)</text>
<rect x="370" y="1286" width="12" height="12" rx="3" fill="#fde3e1" stroke="#b42318"/>
<text x="388" y="1296" font-size="11" fill="#333">contradição (✘)</text>
<rect x="540" y="1286" width="12" height="12" rx="3" fill="#d7f5dd" stroke="#1a7f37"/>
<text x="558" y="1296" font-size="11" fill="#333">tour completo (✔)</text>
</svg>