<?xml version="1.0" encoding="UTF-8" standalone="no"?>
<!DOCTYPE svg PUBLIC "-//W3C//DTD SVG 1.1//EN"
 "http://www.w3.org/Graphics/SVG/1.1/DTD/svg11.dtd">
<!-- Generated by graphviz version 16.0.0 (0)
 -->
<!-- Title: backtrack Pages: 1 -->
<svg width="3589pt" height="477pt"
 viewBox="0.00 0.00 3589.00 477.00" xmlns="http://www.w3.org/2000/svg" xmlns:xlink="http://www.w3.org/1999/xlink">
<g id="graph0" class="graph" transform="scale(1 1) rotate(0) translate(4 473)">
<title>backtrack</title>
<polygon fill="white" stroke="none" points="-4,4 -4,-473 3585.3,-473 3585.3,4 -4,4"/>
<!-- root -->
<g id="node1" class="node">
<title>root</title>
<ellipse fill="none" stroke="black" cx="34.65" cy="-274.5" rx="34.65" ry="19.45"/>
<text xml:space="preserve" text-anchor="middle" x="34.65" y="-270.95" font-family="monospace" font-size="14.00">raiz</text>
</g>
<!-- n0 -->
<g id="node2" class="node">
<title>n0</title>
<polygon fill="none" stroke="black" points="179.05,-298 105.3,-298 105.3,-251 179.05,-251 179.05,-298"/>
<text xml:space="preserve" text-anchor="middle" x="142.17" y="-280.7" font-family="monospace" font-size="14.00">c3&#45;d5=0</text>
<text xml:space="preserve" text-anchor="middle" x="142.17" y="-261.2" font-family="monospace" font-size="14.00">OK</text>
</g>
<!-- root&#45;&gt;n0 -->
<g id="edge1" class="edge">
<title>root&#45;&gt;n0</title>
<path fill="none" stroke="black" d="M69.62,-274.5C77.32,-274.5 85.63,-274.5 93.77,-274.5"/>
<polygon fill="black" stroke="black" points="93.57,-278 103.57,-274.5 93.57,-271 93.57,-278"/>
</g>
<!-- n1 -->
<g id="node3" class="node">
<title>n1</title>
<polygon fill="none" stroke="black" points="288.8,-298 215.05,-298 215.05,-251 288.8,-251 288.8,-298"/>
<text xml:space="preserve" text-anchor="middle" x="251.92" y="-280.7" font-family="monospace" font-size="14.00">c2&#45;b4=0</text>
<text xml:space="preserve" text-anchor="middle" x="251.92" y="-261.2" font-family="monospace" font-size="14.00">OK</text>
</g>
<!-- n0&#45;&gt;n1 -->
<g id="edge2" class="edge">
<title>n0&#45;&gt;n1</title>
<path fill="none" stroke="black" d="M179.35,-274.5C186.99,-274.5 195.17,-274.5 203.16,-274.5"/>
<polygon fill="black" stroke="black" points="203.14,-278 213.14,-274.5 203.14,-271 203.14,-278"/>
</g>
<!-- n2 -->
<g id="node4" class="node">
<title>n2</title>
<polygon fill="none" stroke="black" points="398.55,-298 324.8,-298 324.8,-251 398.55,-251 398.55,-298"/>
<text xml:space="preserve" text-anchor="middle" x="361.67" y="-280.7" font-family="monospace" font-size="14.00">d2&#45;e4=0</text>
<text xml:space="preserve" text-anchor="middle" x="361.67" y="-261.2" font-family="monospace" font-size="14.00">OK</text>
</g>
<!-- n1&#45;&gt;n2 -->
<g id="edge3" class="edge">
<title>n1&#45;&gt;n2</title>
<path fill="none" stroke="black" d="M289.1,-274.5C296.74,-274.5 304.92,-274.5 312.91,-274.5"/>
<polygon fill="black" stroke="black" points="312.89,-278 322.89,-274.5 312.89,-271 312.89,-278"/>
</g>
<!-- n3 -->
<g id="node5" class="node">
<title>n3</title>
<polygon fill="none" stroke="black" points="508.3,-298 434.55,-298 434.55,-251 508.3,-251 508.3,-298"/>
<text xml:space="preserve" text-anchor="middle" x="471.42" y="-280.7" font-family="monospace" font-size="14.00">b3&#45;c5=0</text>
<text xml:space="preserve" text-anchor="middle" x="471.42" y="-261.2" font-family="monospace" font-size="14.00">OK</text>
</g>
<!-- n2&#45;&gt;n3 -->
<g id="edge4" class="edge">
<title>n2&#45;&gt;n3</title>
<path fill="none" stroke="black" d="M398.85,-274.5C406.49,-274.5 414.67,-274.5 422.66,-274.5"/>
<polygon fill="black" stroke="black" points="422.64,-278 432.64,-274.5 422.64,-271 422.64,-278"/>
</g>
<!-- n4 -->
<g id="node6" class="node">
<title>n4</title>
<polygon fill="none" stroke="black" points="618.05,-298 544.3,-298 544.3,-251 618.05,-251 618.05,-298"/>
<text xml:space="preserve" text-anchor="middle" x="581.17" y="-280.7" font-family="monospace" font-size="14.00">c2&#45;e3=0</text>
<text xml:space="preserve" text-anchor="middle" x="581.17" y="-261.2" font-family="monospace" font-size="14.00">OK</text>
</g>
<!-- n3&#45;&gt;n4 -->
<g id="edge5" class="edge">
<title>n3&#45;&gt;n4</title>
<path fill="none" stroke="black" d="M508.6,-274.5C516.24,-274.5 524.42,-274.5 532.41,-274.5"/>
<polygon fill="black" stroke="black" points="532.39,-278 542.39,-274.5 532.39,-271 532.39,-278"/>
</g>
<!-- n5 -->
<g id="node7" class="node">
<title>n5</title>
<polygon fill="none" stroke="black" points="727.8,-298 654.05,-298 654.05,-251 727.8,-251 727.8,-298"/>
<text xml:space="preserve" text-anchor="middle" x="690.92" y="-280.7" font-family="monospace" font-size="14.00">c3&#45;e4=0</text>
<text xml:space="preserve" text-anchor="middle" x="690.92" y="-261.2" font-family="monospace" font-size="14.00">OK</text>
</g>
<!-- n4&#45;&gt;n5 -->
<g id="edge6" class="edge">
<title>n4&#45;&gt;n5</title>
<path fill="none" stroke="black" d="M618.35,-274.5C625.99,-274.5 634.17,-274.5 642.16,-274.5"/>
<polygon fill="black" stroke="black" points="642.14,-278 652.14,-274.5 642.14,-271 642.14,-278"/>
</g>
<!-- n6 -->
<g id="node8" class="node">
<title>n6</title>
<polygon fill="none" stroke="black" points="837.55,-298 763.8,-298 763.8,-251 837.55,-251 837.55,-298"/>
<text xml:space="preserve" text-anchor="middle" x="800.67" y="-280.7" font-family="monospace" font-size="14.00">d3&#45;c5=0</text>
<text xml:space="preserve" text-anchor="middle" x="800.67" y="-261.2" font-family="monospace" font-size="14.00">OK</text>
</g>
<!-- n5&#45;&gt;n6 -->
<g id="edge7" class="edge">
<title>n5&#45;&gt;n6</title>
<path fill="none" stroke="black" d="M728.1,-274.5C735.74,-274.5 743.92,-274.5 751.91,-274.5"/>
<polygon fill="black" stroke="black" points="751.89,-278 761.89,-274.5 751.89,-271 751.89,-278"/>
</g>
<!-- n7 -->
<g id="node9" class="node">
<title>n7</title>
<polygon fill="none" stroke="black" points="947.3,-298 873.55,-298 873.55,-251 947.3,-251 947.3,-298"/>
<text xml:space="preserve" text-anchor="middle" x="910.42" y="-280.7" font-family="monospace" font-size="14.00">e3&#45;d5=0</text>
<text xml:space="preserve" text-anchor="middle" x="910.42" y="-261.2" font-family="monospace" font-size="14.00">OK</text>
</g>
<!-- n6&#45;&gt;n7 -->
<g id="edge8" class="edge">
<title>n6&#45;&gt;n7</title>
<path fill="none" stroke="black" d="M837.85,-274.5C845.49,-274.5 853.67,-274.5 861.66,-274.5"/>
<polygon fill="black" stroke="black" points="861.64,-278 871.64,-274.5 861.64,-271 861.64,-278"/>
</g>
<!-- n8 -->
<g id="node10" class="node">
<title>n8</title>
<polygon fill="none" stroke="black" points="1057.05,-298 983.3,-298 983.3,-251 1057.05,-251 1057.05,-298"/>
<text xml:space="preserve" text-anchor="middle" x="1020.17" y="-280.7" font-family="monospace" font-size="14.00">d2&#45;b3=0</text>
<text xml:space="preserve" text-anchor="middle" x="1020.17" y="-261.2" font-family="monospace" font-size="14.00">OK</text>
</g>
<!-- n7&#45;&gt;n8 -->
<g id="edge9" class="edge">
<title>n7&#45;&gt;n8</title>
<path fill="none" stroke="black" d="M947.6,-274.5C955.24,-274.5 963.42,-274.5 971.41,-274.5"/>
<polygon fill="black" stroke="black" points="971.39,-278 981.39,-274.5 971.39,-271 971.39,-278"/>
</g>
<!-- n9 -->
<g id="node11" class="node">
<title>n9</title>
<polygon fill="none" stroke="black" points="1166.8,-298 1093.05,-298 1093.05,-251 1166.8,-251 1166.8,-298"/>
<text xml:space="preserve" text-anchor="middle" x="1129.92" y="-280.7" font-family="monospace" font-size="14.00">d3&#45;b4=0</text>
<text xml:space="preserve" text-anchor="middle" x="1129.92" y="-261.2" font-family="monospace" font-size="14.00">OK</text>
</g>
<!-- n8&#45;&gt;n9 -->
<g id="edge10" class="edge">
<title>n8&#45;&gt;n9</title>
<path fill="none" stroke="black" d="M1057.35,-274.5C1064.99,-274.5 1073.17,-274.5 1081.16,-274.5"/>
<polygon fill="black" stroke="black" points="1081.14,-278 1091.14,-274.5 1081.14,-271 1081.14,-278"/>
</g>
<!-- n10 -->
<g id="node12" class="node">
<title>n10</title>
<polygon fill="none" stroke="black" points="1276.55,-298 1202.8,-298 1202.8,-251 1276.55,-251 1276.55,-298"/>
<text xml:space="preserve" text-anchor="middle" x="1239.67" y="-280.7" font-family="monospace" font-size="14.00">c2&#45;d4=0</text>
<text xml:space="preserve" text-anchor="middle" x="1239.67" y="-261.2" font-family="monospace" font-size="14.00">OK</text>
</g>
<!-- n9&#45;&gt;n10 -->
<g id="edge11" class="edge">
<title>n9&#45;&gt;n10</title>
<path fill="none" stroke="black" d="M1167.1,-274.5C1174.74,-274.5 1182.92,-274.5 1190.91,-274.5"/>
<polygon fill="black" stroke="black" points="1190.89,-278 1200.89,-274.5 1190.89,-271 1190.89,-278"/>
</g>
<!-- n11 -->
<g id="node13" class="node">
<title>n11</title>
<polygon fill="none" stroke="black" points="1386.3,-298 1312.55,-298 1312.55,-251 1386.3,-251 1386.3,-298"/>
<text xml:space="preserve" text-anchor="middle" x="1349.42" y="-280.7" font-family="monospace" font-size="14.00">e3&#45;c4=0</text>
<text xml:space="preserve" text-anchor="middle" x="1349.42" y="-261.2" font-family="monospace" font-size="14.00">OK</text>
</g>
<!-- n10&#45;&gt;n11 -->
<g id="edge12" class="edge">
<title>n10&#45;&gt;n11</title>
<path fill="none" stroke="black" d="M1276.85,-274.5C1284.49,-274.5 1292.67,-274.5 1300.66,-274.5"/>
<polygon fill="black" stroke="black" points="1300.64,-278 1310.64,-274.5 1300.64,-271 1300.64,-278"/>
</g>
<!-- n12 -->
<g id="node14" class="node">
<title>n12</title>
<polygon fill="none" stroke="black" points="1496.05,-298 1422.3,-298 1422.3,-251 1496.05,-251 1496.05,-298"/>
<text xml:space="preserve" text-anchor="middle" x="1459.17" y="-280.7" font-family="monospace" font-size="14.00">b3&#45;d4=0</text>
<text xml:space="preserve" text-anchor="middle" x="1459.17" y="-261.2" font-family="monospace" font-size="14.00">OK</text>
</g>
<!-- n11&#45;&gt;n12 -->
<g id="edge13" class="edge">
<title>n11&#45;&gt;n12</title>
<path fill="none" stroke="black" d="M1386.6,-274.5C1394.24,-274.5 1402.42,-274.5 1410.41,-274.5"/>
<polygon fill="black" stroke="black" points="1410.39,-278 1420.39,-274.5 1410.39,-271 1410.39,-278"/>
</g>
<!-- n13 -->
<g id="node15" class="node">
<title>n13</title>
<polygon fill="none" stroke="black" points="1605.8,-298 1532.05,-298 1532.05,-251 1605.8,-251 1605.8,-298"/>
<text xml:space="preserve" text-anchor="middle" x="1568.92" y="-280.7" font-family="monospace" font-size="14.00">b4&#45;d5=0</text>
<text xml:space="preserve" text-anchor="middle" x="1568.92" y="-261.2" font-family="monospace" font-size="14.00">OK</text>
</g>
<!-- n12&#45;&gt;n13 -->
<g id="edge14" class="edge">
<title>n12&#45;&gt;n13</title>
<path fill="none" stroke="black" d="M1496.35,-274.5C1503.99,-274.5 1512.17,-274.5 1520.16,-274.5"/>
<polygon fill="black" stroke="black" points="1520.14,-278 1530.14,-274.5 1520.14,-271 1520.14,-278"/>
</g>
<!-- n14 -->
<g id="node16" class="node">
<title>n14</title>
<polygon fill="none" stroke="black" points="1715.55,-298 1641.8,-298 1641.8,-251 1715.55,-251 1715.55,-298"/>
<text xml:space="preserve" text-anchor="middle" x="1678.67" y="-280.7" font-family="monospace" font-size="14.00">e4&#45;c5=0</text>
<text xml:space="preserve" text-anchor="middle" x="1678.67" y="-261.2" font-family="monospace" font-size="14.00">OK</text>
</g>
<!-- n13&#45;&gt;n14 -->
<g id="edge15" class="edge">
<title>n13&#45;&gt;n14</title>
<path fill="none" stroke="black" d="M1606.1,-274.5C1613.74,-274.5 1621.92,-274.5 1629.91,-274.5"/>
<polygon fill="black" stroke="black" points="1629.89,-278 1639.89,-274.5 1629.89,-271 1629.89,-278"/>
</g>
<!-- n15 -->
<g id="node17" class="node">
<title>n15</title>
<polygon fill="none" stroke="black" points="1825.3,-298 1751.55,-298 1751.55,-251 1825.3,-251 1825.3,-298"/>
<text xml:space="preserve" text-anchor="middle" x="1788.42" y="-280.7" font-family="monospace" font-size="14.00">d2&#45;c4=0</text>
<text xml:space="preserve" text-anchor="middle" x="1788.42" y="-261.2" font-family="monospace" font-size="14.00">OK</text>
</g>
<!-- n14&#45;&gt;n15 -->
<g id="edge16" class="edge">
<title>n14&#45;&gt;n15</title>
<path fill="none" stroke="black" d="M1715.85,-274.5C1723.49,-274.5 1731.67,-274.5 1739.66,-274.5"/>
<polygon fill="black" stroke="black" points="1739.64,-278 1749.64,-274.5 1739.64,-271 1739.64,-278"/>
</g>
<!-- n16 -->
<g id="node18" class="node">
<title>n16</title>
<polygon fill="none" stroke="black" points="1935.05,-298 1861.3,-298 1861.3,-251 1935.05,-251 1935.05,-298"/>
<text xml:space="preserve" text-anchor="middle" x="1898.17" y="-280.7" font-family="monospace" font-size="14.00">e1&#45;c2=1</text>
<text xml:space="preserve" text-anchor="middle" x="1898.17" y="-261.2" font-family="monospace" font-size="14.00">OK</text>
</g>
<!-- n15&#45;&gt;n16 -->
<g id="edge17" class="edge">
<title>n15&#45;&gt;n16</title>
<path fill="none" stroke="black" d="M1825.6,-274.5C1833.24,-274.5 1841.42,-274.5 1849.41,-274.5"/>
<polygon fill="black" stroke="black" points="1849.39,-278 1859.39,-274.5 1849.39,-271 1849.39,-278"/>
</g>
<!-- n17 -->
<g id="node19" class="node">
<title>n17</title>
<polygon fill="none" stroke="black" points="2044.8,-298 1971.05,-298 1971.05,-251 2044.8,-251 2044.8,-298"/>
<text xml:space="preserve" text-anchor="middle" x="2007.92" y="-280.7" font-family="monospace" font-size="14.00">d1&#45;e3=1</text>
<text xml:space="preserve" text-anchor="middle" x="2007.92" y="-261.2" font-family="monospace" font-size="14.00">OK</text>
</g>
<!-- n16&#45;&gt;n17 -->
<g id="edge18" class="edge">
<title>n16&#45;&gt;n17</title>
<path fill="none" stroke="black" d="M1935.35,-274.5C1942.99,-274.5 1951.17,-274.5 1959.16,-274.5"/>
<polygon fill="black" stroke="black" points="1959.14,-278 1969.14,-274.5 1959.14,-271 1959.14,-278"/>
</g>
<!-- n18 -->
<g id="node20" class="node">
<title>n18</title>
<polygon fill="none" stroke="black" points="2154.55,-298 2080.8,-298 2080.8,-251 2154.55,-251 2154.55,-298"/>
<text xml:space="preserve" text-anchor="middle" x="2117.67" y="-280.7" font-family="monospace" font-size="14.00">e2&#45;d4=0</text>
<text xml:space="preserve" text-anchor="middle" x="2117.67" y="-261.2" font-family="monospace" font-size="14.00">OK</text>
</g>
<!-- n17&#45;&gt;n18 -->
<g id="edge19" class="edge">
<title>n17&#45;&gt;n18</title>
<path fill="none" stroke="black" d="M2045.1,-274.5C2052.74,-274.5 2060.92,-274.5 2068.91,-274.5"/>
<polygon fill="black" stroke="black" points="2068.89,-278 2078.89,-274.5 2068.89,-271 2068.89,-278"/>
</g>
<!-- n19 -->
<g id="node21" class="node">
<title>n19</title>
<polygon fill="none" stroke="black" points="2264.3,-298 2190.55,-298 2190.55,-251 2264.3,-251 2264.3,-298"/>
<text xml:space="preserve" text-anchor="middle" x="2227.42" y="-280.7" font-family="monospace" font-size="14.00">d4&#45;b5=0</text>
<text xml:space="preserve" text-anchor="middle" x="2227.42" y="-261.2" font-family="monospace" font-size="14.00">OK</text>
</g>
<!-- n18&#45;&gt;n19 -->
<g id="edge20" class="edge">
<title>n18&#45;&gt;n19</title>
<path fill="none" stroke="black" d="M2154.85,-274.5C2162.49,-274.5 2170.67,-274.5 2178.66,-274.5"/>
<polygon fill="black" stroke="black" points="2178.64,-278 2188.64,-274.5 2178.64,-271 2178.64,-278"/>
</g>
<!-- n20 -->
<g id="node22" class="node">
<title>n20</title>
<polygon fill="none" stroke="black" points="2374.05,-298 2300.3,-298 2300.3,-251 2374.05,-251 2374.05,-298"/>
<text xml:space="preserve" text-anchor="middle" x="2337.17" y="-280.7" font-family="monospace" font-size="14.00">c4&#45;d6=1</text>
<text xml:space="preserve" text-anchor="middle" x="2337.17" y="-261.2" font-family="monospace" font-size="14.00">OK</text>
</g>
<!-- n19&#45;&gt;n20 -->
<g id="edge21" class="edge">
<title>n19&#45;&gt;n20</title>
<path fill="none" stroke="black" d="M2264.6,-274.5C2272.24,-274.5 2280.42,-274.5 2288.41,-274.5"/>
<polygon fill="black" stroke="black" points="2288.39,-278 2298.39,-274.5 2288.39,-271 2288.39,-278"/>
</g>
<!-- n21 -->
<g id="node23" class="node">
<title>n21</title>
<polygon fill="none" stroke="black" points="2483.8,-298 2410.05,-298 2410.05,-251 2483.8,-251 2483.8,-298"/>
<text xml:space="preserve" text-anchor="middle" x="2446.92" y="-280.7" font-family="monospace" font-size="14.00">e2&#45;c3=0</text>
<text xml:space="preserve" text-anchor="middle" x="2446.92" y="-261.2" font-family="monospace" font-size="14.00">OK</text>
</g>
<!-- n20&#45;&gt;n21 -->
<g id="edge22" class="edge">
<title>n20&#45;&gt;n21</title>
<path fill="none" stroke="black" d="M2374.35,-274.5C2381.99,-274.5 2390.17,-274.5 2398.16,-274.5"/>
<polygon fill="black" stroke="black" points="2398.14,-278 2408.14,-274.5 2398.14,-271 2398.14,-278"/>
</g>
<!-- n22 -->
<g id="node24" class="node">
<title>n22</title>
<polygon fill="none" stroke="black" points="2593.55,-298 2519.8,-298 2519.8,-251 2593.55,-251 2593.55,-298"/>
<text xml:space="preserve" text-anchor="middle" x="2556.67" y="-280.7" font-family="monospace" font-size="14.00">b2&#45;c4=0</text>
<text xml:space="preserve" text-anchor="middle" x="2556.67" y="-261.2" font-family="monospace" font-size="14.00">OK</text>
</g>
<!-- n21&#45;&gt;n22 -->
<g id="edge23" class="edge">
<title>n21&#45;&gt;n22</title>
<path fill="none" stroke="black" d="M2484.1,-274.5C2491.74,-274.5 2499.92,-274.5 2507.91,-274.5"/>
<polygon fill="black" stroke="black" points="2507.89,-278 2517.89,-274.5 2507.89,-271 2507.89,-278"/>
</g>
<!-- n23 -->
<g id="node25" class="node">
<title>n23</title>
<polygon fill="none" stroke="black" points="2703.3,-298 2629.55,-298 2629.55,-251 2703.3,-251 2703.3,-298"/>
<text xml:space="preserve" text-anchor="middle" x="2666.42" y="-280.7" font-family="monospace" font-size="14.00">c4&#45;e5=0</text>
<text xml:space="preserve" text-anchor="middle" x="2666.42" y="-261.2" font-family="monospace" font-size="14.00">OK</text>
</g>
<!-- n22&#45;&gt;n23 -->
<g id="edge24" class="edge">
<title>n22&#45;&gt;n23</title>
<path fill="none" stroke="black" d="M2593.85,-274.5C2601.49,-274.5 2609.67,-274.5 2617.66,-274.5"/>
<polygon fill="black" stroke="black" points="2617.64,-278 2627.64,-274.5 2617.64,-271 2617.64,-278"/>
</g>
<!-- n24 -->
<g id="node26" class="node">
<title>n24</title>
<polygon fill="none" stroke="black" points="2813.05,-319 2739.3,-319 2739.3,-272 2813.05,-272 2813.05,-319"/>
<text xml:space="preserve" text-anchor="middle" x="2776.17" y="-301.7" font-family="monospace" font-size="14.00">b1&#45;c3=1</text>
<text xml:space="preserve" text-anchor="middle" x="2776.17" y="-282.2" font-family="monospace" font-size="14.00">OK</text>
</g>
<!-- n23&#45;&gt;n24 -->
<g id="edge25" class="edge">
<title>n23&#45;&gt;n24</title>
<path fill="none" stroke="black" d="M2703.6,-281.55C2711.33,-283.06 2719.61,-284.67 2727.69,-286.25"/>
<polygon fill="black" stroke="black" points="2726.93,-289.66 2737.42,-288.14 2728.27,-282.79 2726.93,-289.66"/>
</g>
<!-- n31 -->
<g id="node33" class="node">
<title>n31</title>
<polygon fill="none" stroke="black" points="2813.05,-233 2739.3,-233 2739.3,-186 2813.05,-186 2813.05,-233"/>
<text xml:space="preserve" text-anchor="middle" x="2776.17" y="-215.7" font-family="monospace" font-size="14.00">b1&#45;c3=0</text>
<text xml:space="preserve" text-anchor="middle" x="2776.17" y="-196.2" font-family="monospace" font-size="14.00">OK</text>
</g>
<!-- n23&#45;&gt;n31 -->
<g id="edge32" class="edge">
<title>n23&#45;&gt;n31</title>
<path fill="none" stroke="black" d="M2703.6,-252.68C2711.77,-247.74 2720.56,-242.45 2729.08,-237.31"/>
<polygon fill="black" stroke="black" points="2730.85,-240.32 2737.61,-232.16 2727.24,-234.33 2730.85,-240.32"/>
</g>
<!-- n25 -->
<g id="node27" class="node">
<title>n25</title>
<polygon fill="none" stroke="black" points="2922.8,-404 2849.05,-404 2849.05,-357 2922.8,-357 2922.8,-404"/>
<text xml:space="preserve" text-anchor="middle" x="2885.92" y="-386.7" font-family="monospace" font-size="14.00">a3&#45;c4=1</text>
<text xml:space="preserve" text-anchor="middle" x="2885.92" y="-367.2" font-family="monospace" font-size="14.00">OK</text>
</g>
<!-- n24&#45;&gt;n25 -->
<g id="edge26" class="edge">
<title>n24&#45;&gt;n25</title>
<path fill="none" stroke="black" d="M2807.47,-319.4C2819.39,-328.81 2833.23,-339.72 2845.89,-349.71"/>
<polygon fill="black" stroke="black" points="2843.64,-352.39 2853.66,-355.84 2847.98,-346.9 2843.64,-352.39"/>
</g>
<!-- n30 -->
<g id="node32" class="node">
<title>n30</title>
<polygon fill="none" stroke="orange" points="2922.8,-319 2849.05,-319 2849.05,-272 2922.8,-272 2922.8,-319"/>
<text xml:space="preserve" text-anchor="middle" x="2885.92" y="-301.7" font-family="monospace" font-size="14.00">a3&#45;c4=0</text>
<text xml:space="preserve" text-anchor="middle" x="2885.92" y="-282.2" font-family="monospace" font-size="14.00">SUBTOUR</text>
</g>
<!-- n24&#45;&gt;n30 -->
<g id="edge31" class="edge">
<title>n24&#45;&gt;n30</title>
<path fill="none" stroke="black" d="M2813.35,-295.5C2820.99,-295.5 2829.17,-295.5 2837.16,-295.5"/>
<polygon fill="black" stroke="black" points="2837.14,-299 2847.14,-295.5 2837.14,-292 2837.14,-299"/>
</g>
<!-- n26 -->
<g id="node28" class="node">
<title>n26</title>
<polygon fill="none" stroke="orange" points="3032.55,-469 2958.8,-469 2958.8,-422 3032.55,-422 3032.55,-469"/>
<text xml:space="preserve" text-anchor="middle" x="2995.67" y="-451.7" font-family="monospace" font-size="14.00">f3&#45;d4=1</text>
<text xml:space="preserve" text-anchor="middle" x="2995.67" y="-432.2" font-family="monospace" font-size="14.00">SUBTOUR</text>
</g>
<!-- n25&#45;&gt;n26 -->
<g id="edge27" class="edge">
<title>n25&#45;&gt;n26</title>
<path fill="none" stroke="black" d="M2923.1,-402.32C2931.27,-407.26 2940.06,-412.55 2948.58,-417.69"/>
<polygon fill="black" stroke="black" points="2946.74,-420.67 2957.11,-422.84 2950.35,-414.68 2946.74,-420.67"/>
</g>
<!-- n27 -->
<g id="node29" class="node">
<title>n27</title>
<polygon fill="none" stroke="black" points="3032.55,-404 2958.8,-404 2958.8,-357 3032.55,-357 3032.55,-404"/>
<text xml:space="preserve" text-anchor="middle" x="2995.67" y="-386.7" font-family="monospace" font-size="14.00">f3&#45;d4=0</text>
<text xml:space="preserve" text-anchor="middle" x="2995.67" y="-367.2" font-family="monospace" font-size="14.00">OK</text>
</g>
<!-- n25&#45;&gt;n27 -->
<g id="edge28" class="edge">
<title>n25&#45;&gt;n27</title>
<path fill="none" stroke="black" d="M2923.1,-380.5C2930.74,-380.5 2938.92,-380.5 2946.91,-380.5"/>
<polygon fill="black" stroke="black" points="2946.89,-384 2956.89,-380.5 2946.89,-377 2946.89,-384"/>
</g>
<!-- n28 -->
<g id="node30" class="node">
<title>n28</title>
<polygon fill="none" stroke="orange" points="3142.3,-469 3068.55,-469 3068.55,-422 3142.3,-422 3142.3,-469"/>
<text xml:space="preserve" text-anchor="middle" x="3105.42" y="-451.7" font-family="monospace" font-size="14.00">d4&#45;c6=1</text>
<text xml:space="preserve" text-anchor="middle" x="3105.42" y="-432.2" font-family="monospace" font-size="14.00">SUBTOUR</text>
</g>
<!-- n27&#45;&gt;n28 -->
<g id="edge29" class="edge">
<title>n27&#45;&gt;n28</title>
<path fill="none" stroke="black" d="M3032.85,-402.32C3041.02,-407.26 3049.81,-412.55 3058.33,-417.69"/>
<polygon fill="black" stroke="black" points="3056.49,-420.67 3066.86,-422.84 3060.1,-414.68 3056.49,-420.67"/>
</g>
<!-- n29 -->
<g id="node31" class="node">
<title>n29</title>
<polygon fill="none" stroke="orange" points="3142.3,-404 3068.55,-404 3068.55,-357 3142.3,-357 3142.3,-404"/>
<text xml:space="preserve" text-anchor="middle" x="3105.42" y="-386.7" font-family="monospace" font-size="14.00">d4&#45;c6=0</text>
<text xml:space="preserve" text-anchor="middle" x="3105.42" y="-367.2" font-family="monospace" font-size="14.00">SUBTOUR</text>
</g>
<!-- n27&#45;&gt;n29 -->
<g id="edge30" class="edge">
<title>n27&#45;&gt;n29</title>
<path fill="none" stroke="black" d="M3032.85,-380.5C3040.49,-380.5 3048.67,-380.5 3056.66,-380.5"/>
<polygon fill="black" stroke="black" points="3056.64,-384 3066.64,-380.5 3056.64,-377 3056.64,-384"/>
</g>
<!-- n32 -->
<g id="node34" class="node">
<title>n32</title>
<polygon fill="none" stroke="black" points="2922.8,-233 2849.05,-233 2849.05,-186 2922.8,-186 2922.8,-233"/>
<text xml:space="preserve" text-anchor="middle" x="2885.92" y="-215.7" font-family="monospace" font-size="14.00">d3&#45;f4=1</text>
<text xml:space="preserve" text-anchor="middle" x="2885.92" y="-196.2" font-family="monospace" font-size="14.00">OK</text>
</g>
<!-- n31&#45;&gt;n32 -->
<g id="edge33" class="edge">
<title>n31&#45;&gt;n32</title>
<path fill="none" stroke="black" d="M2813.35,-209.5C2820.99,-209.5 2829.17,-209.5 2837.16,-209.5"/>
<polygon fill="black" stroke="black" points="2837.14,-213 2847.14,-209.5 2837.14,-206 2837.14,-213"/>
</g>
<!-- n43 -->
<g id="node45" class="node">
<title>n43</title>
<polygon fill="none" stroke="black" points="2922.8,-152 2849.05,-152 2849.05,-105 2922.8,-105 2922.8,-152"/>
<text xml:space="preserve" text-anchor="middle" x="2885.92" y="-134.7" font-family="monospace" font-size="14.00">d3&#45;f4=0</text>
<text xml:space="preserve" text-anchor="middle" x="2885.92" y="-115.2" font-family="monospace" font-size="14.00">OK</text>
</g>
<!-- n31&#45;&gt;n43 -->
<g id="edge44" class="edge">
<title>n31&#45;&gt;n43</title>
<path fill="none" stroke="black" d="M2808.92,-185.64C2819.89,-177.39 2832.34,-168.02 2843.95,-159.3"/>
<polygon fill="black" stroke="black" points="2845.93,-162.19 2851.82,-153.38 2841.72,-156.59 2845.93,-162.19"/>
</g>
<!-- n33 -->
<g id="node35" class="node">
<title>n33</title>
<polygon fill="none" stroke="black" points="3032.55,-274 2958.8,-274 2958.8,-227 3032.55,-227 3032.55,-274"/>
<text xml:space="preserve" text-anchor="middle" x="2995.67" y="-256.7" font-family="monospace" font-size="14.00">b2&#45;d3=0</text>
<text xml:space="preserve" text-anchor="middle" x="2995.67" y="-237.2" font-family="monospace" font-size="14.00">OK</text>
</g>
<!-- n32&#45;&gt;n33 -->
<g id="edge34" class="edge">
<title>n32&#45;&gt;n33</title>
<path fill="none" stroke="black" d="M2923.1,-223.27C2931.01,-226.28 2939.49,-229.5 2947.74,-232.64"/>
<polygon fill="black" stroke="black" points="2946.4,-235.88 2956.99,-236.16 2948.89,-229.33 2946.4,-235.88"/>
</g>
<!-- n38 -->
<g id="node40" class="node">
<title>n38</title>
<polygon fill="none" stroke="black" points="3032.55,-209 2958.8,-209 2958.8,-162 3032.55,-162 3032.55,-209"/>
<text xml:space="preserve" text-anchor="middle" x="2995.67" y="-191.7" font-family="monospace" font-size="14.00">b2&#45;d3=1</text>
<text xml:space="preserve" text-anchor="middle" x="2995.67" y="-172.2" font-family="monospace" font-size="14.00">OK</text>
</g>
<!-- n32&#45;&gt;n38 -->
<g id="edge39" class="edge">
<title>n32&#45;&gt;n38</title>
<path fill="none" stroke="black" d="M2923.1,-201.44C2930.83,-199.72 2939.11,-197.88 2947.19,-196.08"/>
<polygon fill="black" stroke="black" points="2947.93,-199.5 2956.93,-193.91 2946.41,-192.66 2947.93,-199.5"/>
</g>
<!-- n34 -->
<g id="node36" class="node">
<title>n34</title>
<polygon fill="none" stroke="black" points="3142.3,-339 3068.55,-339 3068.55,-292 3142.3,-292 3142.3,-339"/>
<text xml:space="preserve" text-anchor="middle" x="3105.42" y="-321.7" font-family="monospace" font-size="14.00">a2&#45;c3=1</text>
<text xml:space="preserve" text-anchor="middle" x="3105.42" y="-302.2" font-family="monospace" font-size="14.00">OK</text>
</g>
<!-- n33&#45;&gt;n34 -->
<g id="edge35" class="edge">
<title>n33&#45;&gt;n34</title>
<path fill="none" stroke="black" d="M3032.85,-272.32C3041.02,-277.26 3049.81,-282.55 3058.33,-287.69"/>
<polygon fill="black" stroke="black" points="3056.49,-290.67 3066.86,-292.84 3060.1,-284.68 3056.49,-290.67"/>
</g>
<!-- n37 -->
<g id="node39" class="node">
<title>n37</title>
<polygon fill="none" stroke="orange" points="3142.3,-274 3068.55,-274 3068.55,-227 3142.3,-227 3142.3,-274"/>
<text xml:space="preserve" text-anchor="middle" x="3105.42" y="-256.7" font-family="monospace" font-size="14.00">a2&#45;c3=0</text>
<text xml:space="preserve" text-anchor="middle" x="3105.42" y="-237.2" font-family="monospace" font-size="14.00">SUBTOUR</text>
</g>
<!-- n33&#45;&gt;n37 -->
<g id="edge38" class="edge">
<title>n33&#45;&gt;n37</title>
<path fill="none" stroke="black" d="M3032.85,-250.5C3040.49,-250.5 3048.67,-250.5 3056.66,-250.5"/>
<polygon fill="black" stroke="black" points="3056.64,-254 3066.64,-250.5 3056.64,-247 3056.64,-254"/>
</g>
<!-- n35 -->
<g id="node37" class="node">
<title>n35</title>
<polygon fill="none" stroke="green" points="3252.05,-387 3178.3,-387 3178.3,-340 3252.05,-340 3252.05,-387"/>
<text xml:space="preserve" text-anchor="middle" x="3215.17" y="-369.7" font-family="monospace" font-size="14.00">c1&#45;b3=1</text>
<text xml:space="preserve" text-anchor="middle" x="3215.17" y="-350.2" font-family="monospace" font-size="14.00">TOUR</text>
</g>
<!-- n34&#45;&gt;n35 -->
<g id="edge36" class="edge">
<title>n34&#45;&gt;n35</title>
<path fill="none" stroke="black" d="M3142.6,-331.62C3150.6,-335.18 3159.18,-339 3167.52,-342.72"/>
<polygon fill="black" stroke="black" points="3165.96,-345.86 3176.52,-346.73 3168.81,-339.46 3165.96,-345.86"/>
</g>
<!-- n36 -->
<g id="node38" class="node">
<title>n36</title>
<polygon fill="none" stroke="orange" points="3252.05,-322 3178.3,-322 3178.3,-275 3252.05,-275 3252.05,-322"/>
<text xml:space="preserve" text-anchor="middle" x="3215.17" y="-304.7" font-family="monospace" font-size="14.00">c1&#45;b3=0</text>
<text xml:space="preserve" text-anchor="middle" x="3215.17" y="-285.2" font-family="monospace" font-size="14.00">SUBTOUR</text>
</g>
<!-- n34&#45;&gt;n36 -->
<g id="edge37" class="edge">
<title>n34&#45;&gt;n36</title>
<path fill="none" stroke="black" d="M3142.6,-309.79C3150.33,-308.57 3158.61,-307.27 3166.69,-305.99"/>
<polygon fill="black" stroke="black" points="3167.08,-309.47 3176.41,-304.46 3165.99,-302.56 3167.08,-309.47"/>
</g>
<!-- n39 -->
<g id="node41" class="node">
<title>n39</title>
<polygon fill="none" stroke="black" points="3142.3,-209 3068.55,-209 3068.55,-162 3142.3,-162 3142.3,-209"/>
<text xml:space="preserve" text-anchor="middle" x="3105.42" y="-191.7" font-family="monospace" font-size="14.00">a2&#45;c3=1</text>
<text xml:space="preserve" text-anchor="middle" x="3105.42" y="-172.2" font-family="monospace" font-size="14.00">OK</text>
</g>
<!-- n38&#45;&gt;n39 -->
<g id="edge40" class="edge">
<title>n38&#45;&gt;n39</title>
<path fill="none" stroke="black" d="M3032.85,-185.5C3040.49,-185.5 3048.67,-185.5 3056.66,-185.5"/>
<polygon fill="black" stroke="black" points="3056.64,-189 3066.64,-185.5 3056.64,-182 3056.64,-189"/>
</g>
<!-- n42 -->
<g id="node44" class="node">
<title>n42</title>
<polygon fill="none" stroke="orange" points="3142.3,-144 3068.55,-144 3068.55,-97 3142.3,-97 3142.3,-144"/>
<text xml:space="preserve" text-anchor="middle" x="3105.42" y="-126.7" font-family="monospace" font-size="14.00">a2&#45;c3=0</text>
<text xml:space="preserve" text-anchor="middle" x="3105.42" y="-107.2" font-family="monospace" font-size="14.00">SUBTOUR</text>
</g>
<!-- n38&#45;&gt;n42 -->
<g id="edge43" class="edge">
<title>n38&#45;&gt;n42</title>
<path fill="none" stroke="black" d="M3032.85,-163.68C3041.02,-158.74 3049.81,-153.45 3058.33,-148.31"/>
<polygon fill="black" stroke="black" points="3060.1,-151.32 3066.86,-143.16 3056.49,-145.33 3060.1,-151.32"/>
</g>
<!-- n40 -->
<g id="node42" class="node">
<title>n40</title>
<polygon fill="none" stroke="orange" points="3252.05,-241 3178.3,-241 3178.3,-194 3252.05,-194 3252.05,-241"/>
<text xml:space="preserve" text-anchor="middle" x="3215.17" y="-223.7" font-family="monospace" font-size="14.00">b3&#45;a5=1</text>
<text xml:space="preserve" text-anchor="middle" x="3215.17" y="-204.2" font-family="monospace" font-size="14.00">SUBTOUR</text>
</g>
<!-- n39&#45;&gt;n40 -->
<g id="edge41" class="edge">
<title>n39&#45;&gt;n40</title>
<path fill="none" stroke="black" d="M3142.6,-196.24C3150.42,-198.57 3158.8,-201.05 3166.97,-203.48"/>
<polygon fill="black" stroke="black" points="3165.87,-206.81 3176.45,-206.3 3167.86,-200.1 3165.87,-206.81"/>
</g>
<!-- n41 -->
<g id="node43" class="node">
<title>n41</title>
<polygon fill="none" stroke="green" points="3252.05,-176 3178.3,-176 3178.3,-129 3252.05,-129 3252.05,-176"/>
<text xml:space="preserve" text-anchor="middle" x="3215.17" y="-158.7" font-family="monospace" font-size="14.00">b3&#45;a5=0</text>
<text xml:space="preserve" text-anchor="middle" x="3215.17" y="-139.2" font-family="monospace" font-size="14.00">TOUR</text>
</g>
<!-- n39&#45;&gt;n41 -->
<g id="edge42" class="edge">
<title>n39&#45;&gt;n41</title>
<path fill="none" stroke="black" d="M3142.6,-174.42C3150.42,-172.03 3158.8,-169.46 3166.97,-166.96"/>
<polygon fill="black" stroke="black" points="3167.92,-170.33 3176.46,-164.05 3165.87,-163.63 3167.92,-170.33"/>
</g>
<!-- n44 -->
<g id="node46" class="node">
<title>n44</title>
<polygon fill="none" stroke="black" points="3032.55,-120 2958.8,-120 2958.8,-73 3032.55,-73 3032.55,-120"/>
<text xml:space="preserve" text-anchor="middle" x="2995.67" y="-102.7" font-family="monospace" font-size="14.00">d1&#45;b2=1</text>
<text xml:space="preserve" text-anchor="middle" x="2995.67" y="-83.2" font-family="monospace" font-size="14.00">OK</text>
</g>
<!-- n43&#45;&gt;n44 -->
<g id="edge45" class="edge">
<title>n43&#45;&gt;n44</title>
<path fill="none" stroke="black" d="M2923.1,-117.76C2930.92,-115.43 2939.3,-112.95 2947.47,-110.52"/>
<polygon fill="black" stroke="black" points="2948.36,-113.9 2956.95,-107.7 2946.37,-107.19 2948.36,-113.9"/>
</g>
<!-- n45 -->
<g id="node47" class="node">
<title>n45</title>
<polygon fill="none" stroke="black" points="3142.3,-79 3068.55,-79 3068.55,-32 3142.3,-32 3142.3,-79"/>
<text xml:space="preserve" text-anchor="middle" x="3105.42" y="-61.7" font-family="monospace" font-size="14.00">b2&#45;d3=0</text>
<text xml:space="preserve" text-anchor="middle" x="3105.42" y="-42.2" font-family="monospace" font-size="14.00">OK</text>
</g>
<!-- n44&#45;&gt;n45 -->
<g id="edge46" class="edge">
<title>n44&#45;&gt;n45</title>
<path fill="none" stroke="black" d="M3032.85,-82.73C3040.76,-79.72 3049.24,-76.5 3057.49,-73.36"/>
<polygon fill="black" stroke="black" points="3058.64,-76.67 3066.74,-69.84 3056.15,-70.12 3058.64,-76.67"/>
</g>
<!-- n46 -->
<g id="node48" class="node">
<title>n46</title>
<polygon fill="none" stroke="black" points="3252.05,-79 3178.3,-79 3178.3,-32 3252.05,-32 3252.05,-79"/>
<text xml:space="preserve" text-anchor="middle" x="3215.17" y="-61.7" font-family="monospace" font-size="14.00">f3&#45;d4=1</text>
<text xml:space="preserve" text-anchor="middle" x="3215.17" y="-42.2" font-family="monospace" font-size="14.00">OK</text>
</g>
<!-- n45&#45;&gt;n46 -->
<g id="edge47" class="edge">
<title>n45&#45;&gt;n46</title>
<path fill="none" stroke="black" d="M3142.6,-55.5C3150.24,-55.5 3158.42,-55.5 3166.41,-55.5"/>
<polygon fill="black" stroke="black" points="3166.39,-59 3176.39,-55.5 3166.39,-52 3166.39,-59"/>
</g>
<!-- n47 -->
<g id="node49" class="node">
<title>n47</title>
<polygon fill="none" stroke="black" points="3361.8,-112 3288.05,-112 3288.05,-65 3361.8,-65 3361.8,-112"/>
<text xml:space="preserve" text-anchor="middle" x="3324.92" y="-94.7" font-family="monospace" font-size="14.00">c1&#45;a2=1</text>
<text xml:space="preserve" text-anchor="middle" x="3324.92" y="-75.2" font-family="monospace" font-size="14.00">OK</text>
</g>
<!-- n46&#45;&gt;n47 -->
<g id="edge48" class="edge">
<title>n46&#45;&gt;n47</title>
<path fill="none" stroke="black" d="M3252.35,-66.58C3260.17,-68.97 3268.55,-71.54 3276.72,-74.04"/>
<polygon fill="black" stroke="black" points="3275.62,-77.37 3286.21,-76.95 3277.67,-70.67 3275.62,-77.37"/>
</g>
<!-- n54 -->
<g id="node56" class="node">
<title>n54</title>
<polygon fill="none" stroke="black" points="3361.8,-47 3288.05,-47 3288.05,0 3361.8,0 3361.8,-47"/>
<text xml:space="preserve" text-anchor="middle" x="3324.92" y="-29.7" font-family="monospace" font-size="14.00">c1&#45;a2=0</text>
<text xml:space="preserve" text-anchor="middle" x="3324.92" y="-10.2" font-family="monospace" font-size="14.00">OK</text>
</g>
<!-- n46&#45;&gt;n54 -->
<g id="edge55" class="edge">
<title>n46&#45;&gt;n54</title>
<path fill="none" stroke="black" d="M3252.35,-44.76C3260.17,-42.43 3268.55,-39.95 3276.72,-37.52"/>
<polygon fill="black" stroke="black" points="3277.61,-40.9 3286.2,-34.7 3275.62,-34.19 3277.61,-40.9"/>
</g>
<!-- n48 -->
<g id="node50" class="node">
<title>n48</title>
<polygon fill="none" stroke="black" points="3471.55,-177 3397.8,-177 3397.8,-130 3471.55,-130 3471.55,-177"/>
<text xml:space="preserve" text-anchor="middle" x="3434.67" y="-159.7" font-family="monospace" font-size="14.00">e1&#45;f3=1</text>
<text xml:space="preserve" text-anchor="middle" x="3434.67" y="-140.2" font-family="monospace" font-size="14.00">OK</text>
</g>
<!-- n47&#45;&gt;n48 -->
<g id="edge49" class="edge">
<title>n47&#45;&gt;n48</title>
<path fill="none" stroke="black" d="M3362.1,-110.32C3370.27,-115.26 3379.06,-120.55 3387.58,-125.69"/>
<polygon fill="black" stroke="black" points="3385.74,-128.67 3396.11,-130.84 3389.35,-122.68 3385.74,-128.67"/>
</g>
<!-- n51 -->
<g id="node53" class="node">
<title>n51</title>
<polygon fill="none" stroke="black" points="3471.55,-112 3397.8,-112 3397.8,-65 3471.55,-65 3471.55,-112"/>
<text xml:space="preserve" text-anchor="middle" x="3434.67" y="-94.7" font-family="monospace" font-size="14.00">e1&#45;f3=0</text>
<text xml:space="preserve" text-anchor="middle" x="3434.67" y="-75.2" font-family="monospace" font-size="14.00">OK</text>
</g>
<!-- n47&#45;&gt;n51 -->
<g id="edge52" class="edge">
<title>n47&#45;&gt;n51</title>
<path fill="none" stroke="black" d="M3362.1,-88.5C3369.74,-88.5 3377.92,-88.5 3385.91,-88.5"/>
<polygon fill="black" stroke="black" points="3385.89,-92 3395.89,-88.5 3385.89,-85 3385.89,-92"/>
</g>
<!-- n49 -->
<g id="node51" class="node">
<title>n49</title>
<polygon fill="none" stroke="orange" points="3581.3,-242 3507.55,-242 3507.55,-195 3581.3,-195 3581.3,-242"/>
<text xml:space="preserve" text-anchor="middle" x="3544.42" y="-224.7" font-family="monospace" font-size="14.00">c4&#45;a5=1</text>
<text xml:space="preserve" text-anchor="middle" x="3544.42" y="-205.2" font-family="monospace" font-size="14.00">SUBTOUR</text>
</g>
<!-- n48&#45;&gt;n49 -->
<g id="edge50" class="edge">
<title>n48&#45;&gt;n49</title>
<path fill="none" stroke="black" d="M3471.85,-175.32C3480.02,-180.26 3488.81,-185.55 3497.33,-190.69"/>
<polygon fill="black" stroke="black" points="3495.49,-193.67 3505.86,-195.84 3499.1,-187.68 3495.49,-193.67"/>
</g>
<!-- n50 -->
<g id="node52" class="node">
<title>n50</title>
<polygon fill="none" stroke="orange" points="3581.3,-177 3507.55,-177 3507.55,-130 3581.3,-130 3581.3,-177"/>
<text xml:space="preserve" text-anchor="middle" x="3544.42" y="-159.7" font-family="monospace" font-size="14.00">c4&#45;a5=0</text>
<text xml:space="preserve" text-anchor="middle" x="3544.42" y="-140.2" font-family="monospace" font-size="14.00">SUBTOUR</text>
</g>
<!-- n48&#45;&gt;n50 -->
<g id="edge51" class="edge">
<title>n48&#45;&gt;n50</title>
<path fill="none" stroke="black" d="M3471.85,-153.5C3479.49,-153.5 3487.67,-153.5 3495.66,-153.5"/>
<polygon fill="black" stroke="black" points="3495.64,-157 3505.64,-153.5 3495.64,-150 3495.64,-157"/>
</g>
<!-- n52 -->
<g id="node54" class="node">
<title>n52</title>
<polygon fill="none" stroke="green" points="3581.3,-112 3507.55,-112 3507.55,-65 3581.3,-65 3581.3,-112"/>
<text xml:space="preserve" text-anchor="middle" x="3544.42" y="-94.7" font-family="monospace" font-size="14.00">c4&#45;a5=1</text>
<text xml:space="preserve" text-anchor="middle" x="3544.42" y="-75.2" font-family="monospace" font-size="14.00">TOUR</text>
</g>
<!-- n51&#45;&gt;n52 -->
<g id="edge53" class="edge">
<title>n51&#45;&gt;n52</title>
<path fill="none" stroke="black" d="M3471.85,-88.5C3479.49,-88.5 3487.67,-88.5 3495.66,-88.5"/>
<polygon fill="black" stroke="black" points="3495.64,-92 3505.64,-88.5 3495.64,-85 3495.64,-92"/>
</g>
<!-- n53 -->
<g id="node55" class="node">
<title>n53</title>
<polygon fill="none" stroke="orange" points="3581.3,-47 3507.55,-47 3507.55,0 3581.3,0 3581.3,-47"/>
<text xml:space="preserve" text-anchor="middle" x="3544.42" y="-29.7" font-family="monospace" font-size="14.00">c4&#45;a5=0</text>
<text xml:space="preserve" text-anchor="middle" x="3544.42" y="-10.2" font-family="monospace" font-size="14.00">SUBTOUR</text>
</g>
<!-- n51&#45;&gt;n53 -->
<g id="edge54" class="edge">
<title>n51&#45;&gt;n53</title>
<path fill="none" stroke="black" d="M3471.85,-66.68C3480.02,-61.74 3488.81,-56.45 3497.33,-51.31"/>
<polygon fill="black" stroke="black" points="3499.1,-54.32 3505.86,-46.16 3495.49,-48.33 3499.1,-54.32"/>
</g>
<!-- n55 -->
<g id="node57" class="node">
<title>n55</title>
<polygon fill="none" stroke="green" points="3471.55,-47 3397.8,-47 3397.8,0 3471.55,0 3471.55,-47"/>
<text xml:space="preserve" text-anchor="middle" x="3434.67" y="-29.7" font-family="monospace" font-size="14.00">e1&#45;f3=1</text>
<text xml:space="preserve" text-anchor="middle" x="3434.67" y="-10.2" font-family="monospace" font-size="14.00">TOUR</text>
</g>
<!-- n54&#45;&gt;n55 -->
<g id="edge56" class="edge">
<title>n54&#45;&gt;n55</title>
<path fill="none" stroke="black" d="M3362.1,-23.5C3369.74,-23.5 3377.92,-23.5 3385.91,-23.5"/>
<polygon fill="black" stroke="black" points="3385.89,-27 3395.89,-23.5 3385.89,-20 3385.89,-27"/>
</g>
</g>
</svg>
